<svg id="Scenes07" xmlns="http://www.w3.org/2000/svg" width="813.099" height="486.634" viewBox="0 0 813.099 486.634">
  <path id="Path_753" data-name="Path 753" d="M1151.819,831.542s-3.012,30.352-55.311,30.352H1035.19l81.343-63.243Z" transform="translate(-374.539 -375.26)" fill="#5661ae"/>
  <path id="Path_754" data-name="Path 754" d="M1024.987,403.75l143.993,31.9a10.714,10.714,0,0,1,3.6,1.495c3.981,2.628,11.094,10.313,9.73,31.325-1.825,28.008-35.649,287.03-35.649,287.03L1008.41,635.814Z" transform="translate(-369.383 -299.223)" fill="#5661ae"/>
  <path id="Path_755" data-name="Path 755" d="M1005.926,402.731l145.043,32.138s12.41,4.519,12.281,32.586-35.649,287.03-35.649,287.03L989.346,634.794Z" transform="translate(-365.713 -299.027)" fill="#1c85e8"/>
  <path id="Path_756" data-name="Path 756" d="M1012.8,414.491s2.552,36.971,3.674,42.83c1.97,10.263,47.058-11.3,43.748-20.435-1.712-4.741-9.52-49.917-9.52-49.917Z" transform="translate(-370.229 -295.992)" fill="#bc775c"/>
  <path id="Path_757" data-name="Path 757" d="M1016.76,463.312l-3.86-37.85h22.851Z" transform="translate(-370.248 -303.404)" fill="#93523e" stroke="#93523e" stroke-width="1"/>
  <path id="Path_758" data-name="Path 758" d="M1062.458,366.709c1.744-18.614-19.371-14.6-22.98-13.761s-9.262-26.744-9.262-26.744-41.658-7.418-50.583-.017c0,0-5.6,34.767-6.5,57.032s5.342,32.237,13.5,33c11.12,1.992,24.274-.252,32.679-5.206,14.97-8.826,21.365-24.79,21.365-24.79.266-.123.412-.187.412-.187S1060.819,384.289,1062.458,366.709Z" transform="translate(-362.574 -283.656)" fill="#bc775c"/>
  <path id="Path_760" data-name="Path 760" d="M974.25,350.629s2.368-20.829,2.669-26.6c.434-8.3,6.5-5.626,10.839.192,6.248,8.64,18.166,8.093,28.186,5.383,8.793-2.144,8.923-1.639,9.722,7.647s3.8,26.531,6.621,22.4c3.5-5.4,5.894-10.46,12.055-13.748,8.373-4.468,16.965,3.775,14.946,10.14s-6.742,13.7-17.288,19.714l5.16,23.909c26.137-36.255,35.98-86.047.533-97.576-13.242-4.308-26.993-32.222-52.622-25.872-18.152,4.5-18.152,19.052-19.443,31.706C951.236,308.989,974.25,350.629,974.25,350.629Z" transform="translate(-360.913 -274.489)" fill="#493212"/>
  <path id="Path_763" data-name="Path 763" d="M990.652,379.778s3.095,5.573-1.146,5.778c-4.055.057-6.35,2.5-2.164,5.835" transform="translate(-364.899 -294.608)" fill="none" stroke="#93523e" stroke-linecap="round" stroke-width="1.515"/>
  <path id="Path_767" data-name="Path 767" d="M261.36,831.542s3.011,30.352,55.315,30.352h61.314l-81.341-63.243Z" transform="translate(-225.541 -375.26)" fill="#5661ae"/>
  <path id="Path_768" data-name="Path 768" d="M374.5,403.75,230.5,435.655a10.743,10.743,0,0,0-3.6,1.495c-3.983,2.628-11.1,10.313-9.731,31.325,1.822,28.008,35.647,287.031,35.647,287.031L391.076,635.814Z" transform="translate(-217 -299.223)" fill="#5661ae"/>
  <path id="Path_769" data-name="Path 769" d="M393.6,402.731,248.551,434.869s-12.407,4.519-12.278,32.586,35.647,287.03,35.647,287.03L410.177,634.794Z" transform="translate(-220.711 -299.027)" fill="#febb94"/>
  <path id="Path_770" data-name="Path 770" d="M496.766,568.211l14.074,19.7A24.45,24.45,0,0,0,528.163,598l92.124,9.722,1.4,23.072-112.414,6.825a38.773,38.773,0,0,1-33.11-15.1l-30.128-39.278Z" transform="translate(-261.1 -330.89)" fill="#ffccb3"/>
  <path id="Path_771" data-name="Path 771" d="M507.4,582.428s-28.961,7.647-37.428,31.533l-14.431-21.33,48.747-14.558Z" transform="translate(-262.93 -332.789)" fill="#ff967c"/>
  <path id="Path_772" data-name="Path 772" d="M431.765,476.2s28.18,8.213,36.025,17.7c6.105,7.38,16.484,38.042,24.618,52.81,1.966,3.569,4.755,3.892,2.683,7.4-8.571,14.509-15.917,35.659-30.08,40.243C417.606,587.184,431.765,476.2,431.765,476.2Z" transform="translate(-257.971 -313.172)" fill="#5661ae"/>
  <path id="Path_773" data-name="Path 773" d="M469.672,528.231s18.807,34.107,21.662,52.436c0,0-6.7,16.994-11.423,20.451-7.374,5.393-11.424,2.363-11.424,2.363Z" transform="translate(-265.423 -323.192)" fill="#465393"/>
  <path id="Path_774" data-name="Path 774" d="M337,368.425a47.064,47.064,0,1,0-47.063-47.063A47.063,47.063,0,0,0,337,368.425Z" transform="translate(-231.044 -274.298)" fill="#080b09"/>
  <path id="Path_775" data-name="Path 775" d="M381.422,301.38s-60.74-10.725-67.866,62.929c0,0,6.085,6.544,14.843,7.259,0,0,7.113-71.466,56.579-65.944Z" transform="translate(-235.592 -279.407)" fill="#febb94"/>
  <path id="Path_776" data-name="Path 776" d="M380.778,300.688s-6.985-3.625-1.721-7.806a28.423,28.423,0,0,0,7.74-10.218,7.511,7.511,0,0,1,3.162,9.752c-2.7,6.657-4.385,7.031-4.385,7.031Z" transform="translate(-247.825 -275.909)" fill="#febb94"/>
  <path id="Path_777" data-name="Path 777" d="M376.706,298.309s-1.923,7.631-7.2,3.469a28.439,28.439,0,0,0-11.723-5.186,7.511,7.511,0,0,1,8.765-5.318c7.1,1.1,7.851,2.653,7.851,2.653Z" transform="translate(-244.107 -277.536)" fill="#febb94"/>
  <path id="Path_778" data-name="Path 778" d="M387.595,428.676l7.436,27.666s56.766,64.407,9.652,87.829c-8.281,4.117-47.859-27.522-55.29-34.537s-4.351-48.45-4.351-48.45L362.1,402Z" transform="translate(-241.532 -298.886)" fill="#ffccb3"/>
  <path id="Path_779" data-name="Path 779" d="M377.176,543.748s27.731,17.431,55.6,1.256c0,0-4.295,24.014-21.188,31.743S377.176,543.748,377.176,543.748Z" transform="translate(-247.841 -326.18)" fill="#1c85e8"/>
  <path id="Path_780" data-name="Path 780" d="M396.151,438.764l-14.909-9.752,22.076,37.127Z" transform="translate(-248.624 -304.088)" fill="#ff967c"/>
  <path id="Path_781" data-name="Path 781" d="M427.408,346.248s7.886,41.493-6.207,65.683c-9.191,15.775-21.817,16.22-46.441-2.468-22.577-17.136-27.179-27.379-27.179-27.379l5.519-43.137S418.371,308.828,427.408,346.248Z" transform="translate(-242.143 -284.539)" fill="#ffccb3"/>
  <path id="Path_782" data-name="Path 782" d="M386.217,469.064s27.913,6.893,32.414,10.067,10.277,30.949,18.382,43.811,19.175,33.185,4.953,56.69-12.939,46-12.939,46l10.763,59H319.908c-5.011.458-7.676-12.239-7.527-17.269.491-16.588,2.063-21.534,1-47.837-1.435-35.648-14.748-136.777-14.748-136.777l39.522-14.676c-1.215,55.638,31.109,43.494,58.308,94.107C418.729,519.41,386.217,469.064,386.217,469.064Z" transform="translate(-232.719 -311.608)" fill="#5661ae"/>
  <path id="Path_783" data-name="Path 783" d="M325.892,521.934s5.866,12.227,1.234,24.716c-5.209,14.042-10.941,48.261,14.448,50.417,31.119,2.643,18.055,8.284,3.967,12.608s-8.235,3.972-7.336,18.785c.64,10.543-27.7,31.948-25.092,23.777C327.12,608.4,279.52,554.23,325.892,521.934Z" transform="translate(-233.956 -321.979)" fill="#465393"/>
  <path id="Path_789" data-name="Path 789" d="M429.624,388.013l5.373,11.9-3.745,3.424" transform="translate(-257.94 -296.193)" fill="none" stroke="#e56441" stroke-linecap="round" stroke-width="1.667"/>
  <path id="Path_790" data-name="Path 790" d="M408.758,348.053c-8.774.061-12.883-1.974-22.086,2.356-2.9,1.366-5.652,2.733-7.318,6.083-1.785,6.736-.64,16.093-12.512,15.833,0,0,3.84-12.782-4.317-14.415-13.853-2.774-11.626,19.64-3.043,25.109,5.832,3.716-4.187,30.522-11.641,40.375-25.495-59.579-16.647-65.58-10.018-81.131,11.263-26.428,21.132-34.473,47.795-38.844,0,0,35.326.954,44.692,32.033,8.006,26.569-4.01,36.755-4.01,36.755s.373-19.771-1.583-21.8C422.144,347.744,420.057,347.975,408.758,348.053Z" transform="translate(-238.908 -279.905)" fill="#080b09"/>
  <path id="Path_791" data-name="Path 791" d="M934.384,756.978l-99.968,17.759,19.677,79.133h64.034S948.566,788.443,934.384,756.978Z" transform="translate(-335.881 -367.236)" fill="#ffccb3"/>
  <path id="Path_792" data-name="Path 792" d="M879.178,764.516s15.406,4.745,21.766,29.872-.579,60.088-.579,60.088h9.906s35.324-41.483,9.336-94.351Z" transform="translate(-344.5 -367.842)" fill="#ff967c"/>
  <path id="Path_793" data-name="Path 793" d="M1079,724.984s7.7,57.525-3.795,84.946c-9.786,23.32-24.9,36.541-43.255,36.883H891.208s-.222-75.175-59.584-88.018C831.624,758.795,1026.992,704.382,1079,724.984Z" transform="translate(-335.344 -360.179)" fill="#1f2d49"/>
  <path id="Path_794" data-name="Path 794" d="M1110.888,745.891l-127.7,4.2,1.358-8.92,24.886-2.877h101.279Z" transform="translate(-364.527 -363.639)" fill="#0d1b33"/>
  <path id="Path_795" data-name="Path 795" d="M1003.612,465.977c-1.1,4.657-1.381-11.819-3.6-11.132C989.845,458,960.919,467.022,954.766,469.6c-7.495,3.135-7.995,15.676-8.495,24.56-.35,6.224,8.914,93.6,9.375,152.787.1,12.646-12.7,27.448-14.214,34.477a28.368,28.368,0,0,0-.673,5.763,5.1,5.1,0,0,0,5.066,5.132l152.492,1.425s6.758.983,5.127-6.733a150.461,150.461,0,0,1-2.649-25.591c-1.518-61.48-1.809-164.441-2.471-169.316-1-7.316,6.855-13.615-1.655-17.3l-47.228-18.869s-8.656,6.315-9.907,6.955C1015.813,475.02,1003.612,465.977,1003.612,465.977Z" transform="translate(-356.358 -309.058)" fill="#febb94"/>
  <path id="Path_796" data-name="Path 796" d="M1027.778,476.407s-5.394,19.805-2.9,38.935-7.34,45.3-9.375,66.308,7.929,48.521,6.371,66.153,4.1,50.133,4.1,50.133" transform="translate(-370.696 -313.213)" fill="none" stroke="#ff967c" stroke-miterlimit="10" stroke-width="3"/>
  <path id="Path_797" data-name="Path 797" d="M500.506,738.819l99.968,17.76L580.8,835.712H516.762S486.324,770.285,500.506,738.819Z" transform="translate(-270.863 -363.74)" fill="#ffccb3"/>
  <path id="Path_798" data-name="Path 798" d="M568.532,746.357s-15.406,4.745-21.766,29.873.58,60.088.58,60.088h-9.907s-35.324-41.484-9.335-94.352Z" transform="translate(-275.064 -364.346)" fill="#ff967c"/>
  <path id="Path_799" data-name="Path 799" d="M314.2,710.666s-17.716,33.252-15.608,77.1c2,41.644,24.786,55.67,60.8,55.67l145.561-14.662s.222-75.176,59.584-88.018c0,0-66.093-48.109-132.946-36.022C398.784,710.666,378.169,717.885,314.2,710.666Z" transform="translate(-232.677 -356.802)" fill="#1f2d49"/>
  <path id="Path_800" data-name="Path 800" d="M314.038,694.937s94.274,9.849,129.021-16.114L441.5,700.5s-58.751,32.641-126.081,14.273C315.424,714.771,305.329,707.681,314.038,694.937Z" transform="translate(-235.003 -352.188)" fill="#1c85e8"/>
  <path id="Path_801" data-name="Path 801" d="M670.641,656.639s28.006-5.864,39.6-3.177c11.82,2.442,36.7,8.666,32.24,26.9-3.082,13.021-16.676,7.863-16.676,7.863s3.538,5.2-1.721,7.572c-3.207,1.332-23.9-10.016-23.9-10.016-13.809,4.442-31.828-4.936-31.828-4.936Z" transform="translate(-303.908 -347.169)" fill="#ffccb3"/>
  <path id="Path_802" data-name="Path 802" d="M720.531,688.088l15.089,6.954" transform="translate(-313.953 -353.972)" fill="none" stroke="#ff967c" stroke-linecap="round" stroke-linejoin="round" stroke-width="2.893"/>
  <path id="Path_803" data-name="Path 803" d="M724.71,673.392c3.781.744,20.8,8.77,20.8,8.77" transform="translate(-314.758 -351.142)" fill="none" stroke="#ff967c" stroke-linecap="round" stroke-linejoin="round" stroke-width="2.893"/>
  <path id="Path_804" data-name="Path 804" d="M727.332,662.251a77.915,77.915,0,0,1,21.507,8.968" transform="translate(-315.263 -348.997)" fill="none" stroke="#ff967c" stroke-linecap="round" stroke-linejoin="round" stroke-width="2.893"/>
  <path id="Path_805" data-name="Path 805" d="M487.014,545.3H790.965L944.782,798.451H361.342Z" transform="translate(-244.793 -326.479)" fill="#fff"/>
  <path id="Path_806" data-name="Path 806" d="M823.424,678.98l10.19,61.694,56.594,38.089,94.743-10.237-23.274-27.852Z" transform="translate(-333.765 -352.218)" fill="#96bafd"/>
  <path id="Path_807" data-name="Path 807" d="M755.982,603.127,798.4,681.348l63.172,59.931-51.138-76.9Z" transform="translate(-320.779 -337.613)" fill="#fff"/>
  <path id="Path_808" data-name="Path 808" d="M755.158,603.127l42.423,78.221-4.091,3.147L751.7,605.239Z" transform="translate(-319.955 -337.613)" fill="#5ca4e6"/>
  <path id="Path_809" data-name="Path 809" d="M807.545,700l63.172,59.931v3.839l-67.263-60.623Z" transform="translate(-329.92 -356.266)" fill="#5ca4e6"/>
  <path id="Path_810" data-name="Path 810" d="M886.757,774.435l87.115-15.924v-3.125L886.757,770.6Z" transform="translate(-345.959 -366.93)" fill="#5ca4e6"/>
  <path id="Path_811" data-name="Path 811" d="M961.678,738.065l-56.752-72.638-81.5,10.943,51.138,76.9Z" transform="translate(-333.765 -349.608)" fill="#e7efff"/>
  <path id="Path_812" data-name="Path 812" d="M332.441,523.292l-13.156,75.645A7.511,7.511,0,0,1,311,605.1s-37.073-2.438-49.415-3.466c-2.907-.242-10.807-7.408-8.392-19.209,2.214-16.122,12.584-53.766,19.141-74.669,3.054-10.4,35.71-4.174,35.71-4.174Z" transform="translate(-223.882 -318.089)" fill="#5661ae"/>
  <path id="Path_813" data-name="Path 813" d="M305.911,545.651a31.127,31.127,0,1,0-31.127-31.127A31.127,31.127,0,0,0,305.911,545.651Z" transform="translate(-228.126 -314.559)" fill="#5661ae"/>
  <path id="Path_814" data-name="Path 814" d="M264.066,629.222l.509-6.031,46.154,5.257-.715,5.132-3.927,32.364L261.212,661.1Z" transform="translate(-225.513 -341.476)" fill="#ffccb3"/>
  <path id="Path_815" data-name="Path 815" d="M265.48,623.127l45.93,5.308-.715,5.132c-10.436-1.153-33.835-3.117-45.948-4.358Z" transform="translate(-226.193 -341.464)" fill="#ff967c"/>
  <path id="Path_816" data-name="Path 816" d="M283.394,688.824a22.6,22.6,0,1,0-22.6-22.6A22.6,22.6,0,0,0,283.394,688.824Z" transform="translate(-225.433 -345.412)" fill="#ffccb3"/>
  <path id="Path_817" data-name="Path 817" d="M298.415,675.9l127.524-59.865s7.65-27.2-.669-22.68c-8.527,4.615-144.383,41.339-144.383,41.339Z" transform="translate(-229.301 -335.635)" fill="#ffccb3"/>
  <path id="Path_818" data-name="Path 818" d="M536.681,599.364l-54.218,9.472c-3.492.61-5.814-1.815-5.185-5.418l16.672-95.569a9.945,9.945,0,0,1,7.462-7.628l54.217-9.472c3.493-.61,5.815,1.815,5.186,5.418l-16.672,95.569A9.944,9.944,0,0,1,536.681,599.364Z" transform="translate(-267.096 -315.957)" fill="#1c85e8"/>
  <path id="Path_819" data-name="Path 819" d="M539.694,598.837l-54.217,9.473c-3.493.61-5.815-1.816-5.186-5.418l16.672-95.569a9.943,9.943,0,0,1,7.462-7.628l54.218-9.473c3.492-.61,5.814,1.815,5.185,5.418l-16.672,95.569A9.944,9.944,0,0,1,539.694,598.837Z" transform="translate(-267.676 -315.855)" fill="#b2cdff"/>
  <path id="Path_820" data-name="Path 820" d="M450.172,587.457l6.295,20.521s26.079-6.254,31.658-8.993C499,593.392,510.7,585.848,512.072,582.98c4.2-7.254,4.691-16.23,4.211-22.5a5.694,5.694,0,0,0-8.171-4.747l-22.828,11.393s-2.972-5.022.018-9.012c1.927-2.634-1.046-7.655-2.367-9.194-.521-.711-3.3-.732-3.93-.013-1.063,1.357.4,6.071-1.843,9.064-3.818,4.791-.429,6.871-10.258,15.038C459.128,579.416,450.091,587.26,450.172,587.457Z" transform="translate(-261.896 -327.071)" fill="#ffccb3"/>
  <path id="Path_821" data-name="Path 821" d="M504.848,573.535c6.5-2.189,19.741-9.9,19.741-9.9" transform="translate(-272.424 -330.008)" fill="none" stroke="#ff967c" stroke-linecap="round" stroke-linejoin="round" stroke-width="2.099"/>
  <path id="Path_822" data-name="Path 822" d="M503.791,584.385c5.227-1.9,19.031-9.382,19.031-9.382" transform="translate(-272.221 -332.198)" fill="none" stroke="#ff967c" stroke-linecap="round" stroke-linejoin="round" stroke-width="2.099"/>
  <path id="Path_823" data-name="Path 823" d="M507.692,594.74c3.446-1.175,13.695-6.049,13.695-6.049" transform="translate(-272.972 -334.833)" fill="none" stroke="#ff967c" stroke-linecap="round" stroke-linejoin="round" stroke-width="2.099"/>
  <path id="Path_824" data-name="Path 824" d="M263.611,620.141a25.917,25.917,0,0,0,.308,13.641s22.2,10.755,45.664,5.353a10.826,10.826,0,0,0,3.361-11.238Z" transform="translate(-225.827 -340.889)" fill="#5661ae"/>
  <path id="Path_825" data-name="Path 825" d="M1081.474,520.523s-6.839,37.429-2.592,74.031c2.656,22.9,17.263,46.415,17.078,57.347-.3,17.7-20.534,25.2-20.59,35.445-.04,6.063,16.343,2.291,23.586-.066,16.27-5.3,26.961,1.9,26.961,1.9L1121.581,533.9Z" transform="translate(-382.276 -321.708)" fill="#ff967c"/>
  <path id="Path_826" data-name="Path 826" d="M1126.385,506.418c-15.01-18.787-21.745-9.79-27.017-9.33,0,0-17.861,3.327-16.456,18.431,1.486,15.982,27.76,122.488,27.76,122.488l55.157-4.146-2.616-14.686-5.386-30.249-5.741-32.343-.509-3.85-6.452-42.549S1134.16,516.452,1126.385,506.418Z" transform="translate(-383.713 -316.704)" fill="#febb94"/>
  <path id="Path_827" data-name="Path 827" d="M1130.042,535.654a31.155,31.155,0,1,0-42.851-10.251A31.159,31.159,0,0,0,1130.042,535.654Z" transform="translate(-383.665 -313.508)" fill="#febb94"/>
  <path id="Path_828" data-name="Path 828" d="M967.614,677.7l-34.775,2.587-8.22,19.389,2.809,23.934s5.984-2.439,6.6-10.9,28.3-2.46,35.54-11.759" transform="translate(-353.249 -351.971)" fill="#bc775c"/>
  <path id="Path_829" data-name="Path 829" d="M1109.353,638.854,974.433,664.286a3.367,3.367,0,0,0-2.589,3.688l3.266,25.674a5,5,0,0,0,5.14,4.305l138.979-5.437Z" transform="translate(-362.338 -344.492)" fill="#febb94"/>
  <path id="Path_830" data-name="Path 830" d="M1145.447,692.4A27.608,27.608,0,1,0,1117.84,664.8,27.608,27.608,0,0,0,1145.447,692.4Z" transform="translate(-390.453 -344.171)" fill="#febb94"/>
  <path id="Path_831" data-name="Path 831" d="M954.155,508.7c4.5-22.24-6.089-21.666-9.614-25.2,0,0-13.227-10.906-23.3-.74-10.668,10.754-71.819,94.3-71.819,94.3l38.262,35.19,7.192-8.582,18.63-22.22,19.927-23.747,2.476-2.7,26.88-30.447S951.608,520.4,954.155,508.7Z" transform="translate(-338.77 -313.601)" fill="#febb94"/>
  <path id="Path_832" data-name="Path 832" d="M985.286,511.368a29.405,29.405,0,1,0-37.221,18.544A29.4,29.4,0,0,0,985.286,511.368Z" transform="translate(-353.899 -312.483)" fill="#febb94"/>
  <path id="Path_833" data-name="Path 833" d="M944.225,569.23c-1.143-12.361-5.243-30.877-5.243-30.877s-3.541-.327-14.464,24.081c-8.089,18.291-17.473,36.935-19.026,52.7l18.63-22.219Z" transform="translate(-349.567 -325.141)" fill="#ff967c"/>
  <path id="Path_834" data-name="Path 834" d="M851.359,446.552c-1.992-18.807,3.126-19.719,3.2-29.915.036-9.965,15.082-28.412,7.906-28.039s-12.216,7.23-12.216,7.23c-1.064-8.938.734-23.814-8.413-29.427s-11.3-2.9-18.75-.664c-19.885,6.107-8.785,32.42-8.582,40.758.18,5.248,9.41,24.879,9.829,28.5l2.939,13.961Z" transform="translate(-331.417 -291.392)" fill="#bc775c"/>
  <path id="Path_835" data-name="Path 835" d="M846.244,393.288l-2.72-27Z" transform="translate(-337.635 -292.011)" fill="#93523e"/>
  <path id="Path_836" data-name="Path 836" d="M846.244,393.288l-2.72-27" transform="translate(-337.635 -292.011)" fill="none" stroke="#93523e" stroke-linecap="round" stroke-width="1.515"/>
  <path id="Path_837" data-name="Path 837" d="M834.318,393.912l-4.424-25.932Z" transform="translate(-335.01 -292.336)" fill="#93523e"/>
  <path id="Path_839" data-name="Path 839" d="M821.306,396.47l-2.237-15.52Z" transform="translate(-332.926 -294.833)" fill="#93523e"/>
  <path id="Path_841" data-name="Path 841" d="M840.507,421.694c3.249-7.595,11.679-14.9,11.679-14.9Z" transform="translate(-337.054 -299.809)" fill="#93523e"/>
  <path id="Path_842" data-name="Path 842" d="M840.507,421.694c3.249-7.595,11.679-14.9,11.679-14.9" transform="translate(-337.054 -299.809)" fill="none" stroke="#93523e" stroke-linecap="round" stroke-width="1.515"/>
  <path id="Path_843" data-name="Path 843" d="M889.483,582.273,859.69,468.884a3.178,3.178,0,0,0-3.624-2.225l-23.993,4.573a4.713,4.713,0,0,0-3.756,5.093L839.511,594.7Z" transform="translate(-334.702 -311.326)" fill="#febb94"/>
  <path id="Path_844" data-name="Path 844" d="M830.449,474.652s-2.954-11.32,0-12.564,21.467-4.78,23.952-2.468,4.653,11.954,4.653,11.954Z" transform="translate(-334.864 -309.833)" fill="#febb94"/>
  <path id="Path_845" data-name="Path 845" d="M867.8,640.9a26.055,26.055,0,1,0-26.056-26.055A26.055,26.055,0,0,0,867.8,640.9Z" transform="translate(-337.293 -334.852)" fill="#febb94"/>
  <path id="Path_846" data-name="Path 846" d="M348.221,464.791s18.99,36.78,38.382,42.828c0,0,10.9-5.787,9.161-39.187" transform="translate(-242.266 -310.977)" fill="none" stroke="#fff" stroke-miterlimit="10" stroke-width="1"/>
  <path id="Path_847" data-name="Path 847" d="M393.335,526.418a6.614,6.614,0,1,0-6.614-6.613A6.613,6.613,0,0,0,393.335,526.418Z" transform="translate(-249.679 -320.296)" fill="#5661ae"/>
  <path id="Path_848" data-name="Path 848" d="M383.345,512.993a2.286,2.286,0,1,0-2.285-2.286A2.286,2.286,0,0,0,383.345,512.993Z" transform="translate(-248.589 -319.378)" fill="#5661ae"/>
  <path id="Path_849" data-name="Path 849" d="M402.558,511.241a2.286,2.286,0,1,0-2.286-2.286A2.286,2.286,0,0,0,402.558,511.241Z" transform="translate(-252.288 -319.04)" fill="#5661ae"/>
  <path id="Path_850" data-name="Path 850" d="M612.8,652.758l-74.535.421v71.611L649.2,718.324Z" transform="translate(-278.859 -347.169)" fill="#fff"/>
  <path id="Path_851" data-name="Path 851" d="M621.836,661.4l12.325,25.319" transform="translate(-294.95 -348.833)" fill="none" stroke="#1c85e8" stroke-linecap="round" stroke-miterlimit="10" stroke-width="3.816"/>
  <path id="Path_852" data-name="Path 852" d="M606.959,661.4l4.619,9.488" transform="translate(-292.085 -348.833)" fill="none" stroke="#1c85e8" stroke-linecap="round" stroke-miterlimit="10" stroke-width="3.816" opacity="0.4"/>
  <path id="Path_853" data-name="Path 853" d="M544.491,661.2l36.864-.857,2.709,9.018-38.836,1.327Z" transform="translate(-280.057 -348.629)" fill="#1c85e8" opacity="0.4"/>
  <path id="Path_854" data-name="Path 854" d="M545.772,679.433l21.643-.584,2.709,9.017-23.615,1.055Z" transform="translate(-280.304 -352.193)" fill="#1c85e8" opacity="0.4"/>
  <path id="Path_855" data-name="Path 855" d="M545.772,699.151l36.864-.856,2.71,9.017-38.836,1.327Z" transform="translate(-280.304 -355.937)" fill="#1c85e8" opacity="0.4"/>
  <path id="Path_856" data-name="Path 856" d="M547.053,717.387,568.7,716.8l2.709,9.017-23.615,1.055Z" transform="translate(-280.551 -359.501)" fill="#1c85e8" opacity="0.4"/>
  <path id="Path_857" data-name="Path 857" d="M468.487,790.285l82.191-51.466,58.272,16.573-70.231,61.73Z" transform="translate(-265.423 -363.74)" fill="#1c85e8"/>
  <path id="Path_858" data-name="Path 858" d="M1030.54,467.647s27.534-9.231,32.71-21.432c0,0,12.572,1.808,17.505,6.534,4.909,4.727,16.892,6.133,6.508,11.388s-50.878,9.706-53.34,9.019S1030.54,467.647,1030.54,467.647Z" transform="translate(-373.644 -307.4)" fill="#fff"/>
  <path id="Path_859" data-name="Path 859" d="M1012.773,451.95v6.175s2.463,8.871,11.409,10.626c0,0,1.4,4.9-3.529,5.477s-19.225-6.651-21.33-7.359-3.045-3.616,1.055-5.953C1000.378,460.917,1001.848,452.912,1012.773,451.95Z" transform="translate(-367.286 -308.504)" fill="#fff"/>
  <path id="Path_860" data-name="Path 860" d="M1043.989,543.033a.381.381,0,0,1-.113-.01.53.53,0,0,1-.331-.233.541.541,0,0,1-.073-.4c1.5-6.556-2.7-14.654-6.75-22.489-3.012-5.815-6.128-11.832-6.92-17.256-1.865-12.593,3.23-26.74,3.286-26.878a.524.524,0,0,1,.275-.3.533.533,0,0,1,.4-.021.6.6,0,0,1,.178.107.625.625,0,0,1,.121.165.44.44,0,0,1,.048.2.586.586,0,0,1-.032.2c-.048.137-5.063,14.041-3.246,26.37.783,5.244,3.851,11.176,6.831,16.917,4.134,8,8.43,16.283,6.839,23.219a.49.49,0,0,1-.186.292A.534.534,0,0,1,1043.989,543.033Z" transform="translate(-373.423 -313.023)" fill="#fff"/>
  <path id="Path_861" data-name="Path 861" d="M1022.81,537.029a.529.529,0,0,1-.331-.11.521.521,0,0,1-.178-.292c-3.31-13.883.234-37.683,1.4-44.651A67.908,67.908,0,0,0,1024.716,476a.511.511,0,0,1,.121-.383.527.527,0,0,1,.929.277,68.529,68.529,0,0,1-1.026,16.252c-1.163,6.926-4.683,30.547-1.413,44.239a.474.474,0,0,1,0,.238.528.528,0,0,1-.1.216.5.5,0,0,1-.186.141.6.6,0,0,1-.234.05Z" transform="translate(-371.793 -313.024)" fill="#fff"/>
  <g id="Group_484" data-name="Group 484" transform="translate(666.666 227.147)" opacity="0.6">
    <path id="Path_862" data-name="Path 862" d="M1045.983,562.268a3.328,3.328,0,1,0-3.343-3.328A3.332,3.332,0,0,0,1045.983,562.268Z" transform="translate(-1042.64 -555.611)" fill="#fff" opacity="0.6"/>
  </g>
  <g id="Group_485" data-name="Group 485" transform="translate(648.28 220.159)" opacity="0.6">
    <path id="Path_863" data-name="Path 863" d="M1023.2,553.612a3.328,3.328,0,1,0-3.335-3.328A3.334,3.334,0,0,0,1023.2,553.612Z" transform="translate(-1019.87 -546.956)" fill="#fff" opacity="0.6"/>
  </g>
  <path id="Path_885" data-name="Path 885" d="M944.782,858.817H361.342v14.662h583.44Z" transform="translate(-244.793 -386.845)" fill="#1c85e8"/>
  <circle id="Ellipse_26" data-name="Ellipse 26" cx="2.376" cy="2.376" r="2.376" transform="translate(118.789 97.053)" fill="#5661ae"/>
</svg>
