<svg id="Scenes01" xmlns="http://www.w3.org/2000/svg" xmlns:xlink="http://www.w3.org/1999/xlink" width="940" height="686.444" viewBox="0 0 940 686.444">
  <defs>
    <clipPath id="clip-path">
      <rect id="Rectangle_41" data-name="Rectangle 41" width="940" height="686.444" fill="#fff"/>
    </clipPath>
  </defs>
  <g id="Group_483" data-name="Group 483" clip-path="url(#clip-path)">
    <path id="Path_644" data-name="Path 644" d="M961.343,208.661H388.518a37.966,37.966,0,0,0-37.965,37.965V609.3a37.966,37.966,0,0,0,37.965,37.965H961.343A37.965,37.965,0,0,0,999.309,609.3V246.626A37.965,37.965,0,0,0,961.343,208.661Z" transform="translate(-204.483 -131.781)" fill="#fff"/>
    <path id="Path_645" data-name="Path 645" d="M394.033,208.661H956.883a42.96,42.96,0,0,1,42.957,42.95H351.083a42.951,42.951,0,0,1,42.95-42.95Z" transform="translate(-204.548 -131.781)" fill="#5ca4e6"/>
    <path id="Path_646" data-name="Path 646" d="M738.086,288.718h264.975a17.149,17.149,0,0,1,17.146,17.141V436.841a17.149,17.149,0,0,1-17.146,17.14H738.086a17.14,17.14,0,0,1-17.141-17.14V305.859a17.142,17.142,0,0,1,17.141-17.141Z" transform="translate(-250.033 -141.626)" fill="none" stroke="#5661ae" stroke-miterlimit="10" stroke-width="1" stroke-dasharray="11.93 11.93"/>
    <path id="Path_647" data-name="Path 647" d="M921.964,504.779H656.988a17.141,17.141,0,0,0-17.14,17.141V652.9a17.14,17.14,0,0,0,17.14,17.141H921.964A17.141,17.141,0,0,0,939.105,652.9V521.92A17.141,17.141,0,0,0,921.964,504.779Z" transform="translate(-240.06 -168.197)" fill="#fff"/>
    <path id="Path_648" data-name="Path 648" d="M575.242,504.779H390.085a14.5,14.5,0,0,0-14.5,14.5V655.542a14.5,14.5,0,0,0,14.5,14.5H575.242a14.5,14.5,0,0,0,14.5-14.5V519.28A14.5,14.5,0,0,0,575.242,504.779Z" transform="translate(-207.561 -168.197)" fill="#fff"/>
    <path id="Path_649" data-name="Path 649" d="M667.651,635.5s19.86-2.092,31.8,6.848c16.015,11.988,28.914,21.242,45.939-8.223,18.652-32.282,21.583-43.557,35.19-43.691,17.465-.17,24.283,46.382,56.486,49.672s54.1-1.974,54.1-1.974" transform="translate(-243.479 -178.73)" fill="none" stroke="#5661ae" stroke-linecap="round" stroke-miterlimit="10" stroke-width="10"/>
    <path id="Path_650" data-name="Path 650" d="M667.651,535.878h46.275" transform="translate(-243.479 -172.021)" fill="none" stroke="#5661ae" stroke-linecap="round" stroke-miterlimit="10" stroke-width="16"/>
    <path id="Path_651" data-name="Path 651" d="M667.651,560.5h95.632" transform="translate(-243.479 -175.05)" fill="none" stroke="#d4dcf4" stroke-linecap="round" stroke-miterlimit="10" stroke-width="16"/>
    <path id="Path_652" data-name="Path 652" d="M394.806,242.165a7.339,7.339,0,1,0-7.339-7.339A7.34,7.34,0,0,0,394.806,242.165Z" transform="translate(-209.022 -134.096)" fill="#fff"/>
    <path id="Path_653" data-name="Path 653" d="M423.166,242.165a7.339,7.339,0,1,0-7.339-7.339A7.339,7.339,0,0,0,423.166,242.165Z" transform="translate(-212.51 -134.096)" fill="#fff"/>
    <path id="Path_654" data-name="Path 654" d="M450.717,242.165a7.339,7.339,0,1,0-7.34-7.339A7.339,7.339,0,0,0,450.717,242.165Z" transform="translate(-215.898 -134.096)" fill="#fff"/>
    <path id="Path_655" data-name="Path 655" d="M887.874,408.47a29.7,29.7,0,1,0-29.7-29.7A29.7,29.7,0,0,0,887.874,408.47Z" transform="translate(-266.91 -149.048)" fill="#1c85e8"/>
    <path id="Path_656" data-name="Path 656" d="M894.054,366.609a2.344,2.344,0,1,0-4.689,0v29.946a2.344,2.344,0,1,0,4.689,0Z" transform="translate(-270.745 -150.917)" fill="#fff"/>
    <path id="Path_657" data-name="Path 657" d="M904.583,386.026a2.344,2.344,0,0,0,0-4.689H874.637a2.344,2.344,0,0,0,0,4.689Z" transform="translate(-268.646 -153.016)" fill="#fff"/>
    <path id="Path_658" data-name="Path 658" d="M650.666,900.357c257.736,0,466.669-5.338,466.669-11.922S908.4,876.512,650.666,876.512,184,881.85,184,888.434,392.934,900.357,650.666,900.357Z" transform="translate(-184 -213.912)" fill="#f5f8ff"/>
    <path id="Path_659" data-name="Path 659" d="M1136.984,623.123H810.457V853.791h326.526Z" transform="translate(-261.041 -182.751)" fill="#5ca4e6"/>
    <path id="Path_660" data-name="Path 660" d="M940.9,623.123H810.457V853.791H940.9Z" transform="translate(-261.041 -182.751)" fill="#fff"/>
    <path id="Path_661" data-name="Path 661" d="M271.8,787.159l-13.4,86.053-5.1-.795a6.57,6.57,0,0,1-5.48-7.5l11.378-73.07a6.57,6.57,0,0,1,7.5-5.48Z" transform="translate(-191.838 -202.816)" fill="#5661ae"/>
    <path id="Path_662" data-name="Path 662" d="M319.052,802.915,298.1,796.646l-6.661,29.191,22.923,7.2Z" transform="translate(-197.213 -204.09)" fill="#bc775c"/>
    <path id="Path_663" data-name="Path 663" d="M305.942,830.491l-3.874-1.216,9.517-28.474,3.538,1.059Z" transform="translate(-198.52 -204.601)" fill="#93523e"/>
    <path id="Path_664" data-name="Path 664" d="M296.253,795.9s-8.209,14.263-3.685,30.546l-28.2,46.1c-2.451,1.791-6.176.729-8.246-.373a2.48,2.48,0,0,1-1.271-2.573l12.164-78.112a5.036,5.036,0,0,1,5.654-4.219c5.231.71,13.191,1.856,16.322,2.66C293.83,791.176,296.382,792.937,296.253,795.9Z" transform="translate(-192.709 -202.932)" fill="#1c85e8"/>
    <path id="Path_665" data-name="Path 665" d="M290.418,842.072l-4.14-6.6a1.737,1.737,0,1,0-2.932,1.863l5.169,8.024Z" transform="translate(-196.184 -208.765)" fill="#fff"/>
    <path id="Path_666" data-name="Path 666" d="M285.072,850.14l-4.1-6.588a1.737,1.737,0,1,0-2.932,1.863l5.06,7.949Z" transform="translate(-195.531 -209.759)" fill="#fff"/>
    <path id="Path_667" data-name="Path 667" d="M279.536,859.215l-4.025-6.541a1.736,1.736,0,1,0-2.931,1.863l5.036,7.818Z" transform="translate(-194.859 -210.881)" fill="#fff"/>
    <path id="Path_668" data-name="Path 668" d="M537.81,872.758H624.9v5.163a6.569,6.569,0,0,1-6.569,6.569H544.379a6.57,6.57,0,0,1-6.569-6.569Z" transform="translate(-227.511 -213.451)" fill="#5661ae"/>
    <path id="Path_669" data-name="Path 669" d="M546.363,823.033l-2.97,21.666,29.869,2.091,3.583-23.757Z" transform="translate(-228.198 -207.335)" fill="#bc775c"/>
    <path id="Path_670" data-name="Path 670" d="M576.774,825.373l-.765,5.07-30.672,2.1.983-7.171Z" transform="translate(-228.437 -207.623)" fill="#93523e"/>
    <path id="Path_671" data-name="Path 671" d="M542.692,844.524s15.357,5.917,30.749-1.058l49.895,20.771c2.147,2.146,1.671,5.99.9,8.2a2.474,2.474,0,0,1-2.347,1.651H542.835a5.036,5.036,0,0,1-5.038-4.938c-.1-5.278-.2-13.319.117-16.537C538.4,847.645,539.742,844.853,542.692,844.524Z" transform="translate(-227.498 -209.848)" fill="#1c85e8"/>
    <path id="Path_672" data-name="Path 672" d="M589.562,848.083l-5.888,5.108a1.737,1.737,0,1,0,2.293,2.609l7.133-6.341Z" transform="translate(-233.078 -210.416)" fill="#fff"/>
    <path id="Path_673" data-name="Path 673" d="M598.357,852.13l-5.879,5.066a1.736,1.736,0,1,0,2.292,2.609l7.076-6.222Z" transform="translate(-234.161 -210.914)" fill="#fff"/>
    <path id="Path_674" data-name="Path 674" d="M608.176,856.215l-5.844,4.984a1.737,1.737,0,1,0,2.293,2.609l6.95-6.179Z" transform="translate(-235.372 -211.416)" fill="#fff"/>
    <path id="Path_675" data-name="Path 675" d="M488.289,491.707l18.049-35.537s-10.988,1.436-12.9-5.384,51.928-12.923,51.928-12.923-4.308,15.077-10.769,16.871l-17.768,52.049Z" transform="translate(-221.421 -159.968)" fill="#fecebb"/>
    <path id="Path_676" data-name="Path 676" d="M491.138,493.221l28.193,13.505-2.344,6.864-27.4-17.319Z" transform="translate(-221.581 -166.775)" fill="#fcb99f"/>
    <path id="Path_677" data-name="Path 677" d="M650,282.392,390.478,324.876a8.17,8.17,0,0,0-6.743,9.383l16.947,103.522a8.171,8.171,0,0,0,9.383,6.743L669.59,402.039a8.17,8.17,0,0,0,6.743-9.383L659.387,289.134A8.17,8.17,0,0,0,650,282.392Z" transform="translate(-208.55 -140.835)" fill="#febb94"/>
    <path id="Path_678" data-name="Path 678" d="M536.14,354l105.473-17.267" transform="translate(-227.306 -147.53)" fill="none" stroke="#fff" stroke-linecap="round" stroke-miterlimit="10" stroke-width="16.521"/>
    <path id="Path_679" data-name="Path 679" d="M544.684,391.354l68.8-11.264" transform="translate(-228.357 -152.863)" fill="none" stroke="#fff" stroke-linecap="round" stroke-miterlimit="10" stroke-width="16.521" opacity="0.7"/>
    <path id="Path_680" data-name="Path 680" d="M459.021,426.5a37.3,37.3,0,1,0-37.3-37.3A37.3,37.3,0,0,0,459.021,426.5Z" transform="translate(-213.235 -149.395)" fill="none" stroke="#ef6a77" stroke-miterlimit="10" stroke-width="16.521"/>
    <path id="Path_681" data-name="Path 681" d="M495.834,383.236A37.3,37.3,0,1,1,453,352.45" transform="translate(-213.234 -149.464)" fill="none" stroke="#fff" stroke-linecap="round" stroke-miterlimit="10" stroke-width="16.521"/>
    <path id="Path_682" data-name="Path 682" d="M456.658,710.9l10.765,121.848c0,26.12-26.65,29.091-35.182,26.012-12.034-4.342-128.586-34.013-128.586-34.013l12.352-37.831,89.454,12.434s-2.446-25.385-26.434-102.9Z" transform="translate(-198.715 -191.768)" fill="#5661ae"/>
    <path id="Path_683" data-name="Path 683" d="M397.588,723.057l72.532,20.365-4.078-48.928L389.6,696.208Z" transform="translate(-209.284 -191.528)" fill="#465393"/>
    <path id="Path_684" data-name="Path 684" d="M471.969,408.437s14.364,16.306,18.634,22.905,4.424,19.544-4.505,22.843-16.232,3.854-29.269,1.42c-10.143-1.894-23.293-18.634-19.41-27.174S459.352,404.362,471.969,408.437Z" transform="translate(-215.079 -156.266)" fill="#fecebb"/>
    <path id="Path_685" data-name="Path 685" d="M475.328,459.807l-2.135,27.563-31.251-6.793,13.976-26.01Z" transform="translate(-215.722 -162.022)" fill="#fecebb"/>
    <path id="Path_686" data-name="Path 686" d="M478.819,463.813h-8.5l7.269,12.978" transform="translate(-219.212 -163.159)" fill="#fcb99f"/>
    <path id="Path_687" data-name="Path 687" d="M437.959,481.4l4.66-4.515a5.018,5.018,0,0,1,4.647-1.279l25.554,6.051a3.657,3.657,0,0,1,2.644,2.455l1.847,5.828Z" transform="translate(-215.232 -164.593)" fill="#fff"/>
    <path id="Path_688" data-name="Path 688" d="M391.072,636.736,386.5,658.9c-5.15,33.807,19.088,56.17,56.133,50.075,33.083-5.443,131.08-43.438,131.08-43.438L569.805,605.4l-82.385,13.592S413.37,605.275,391.072,636.736Z" transform="translate(-208.818 -180.571)" fill="#5661ae"/>
    <path id="Path_689" data-name="Path 689" d="M598.866,657.889a26.65,26.65,0,1,0-26.65-26.65A26.651,26.651,0,0,0,598.866,657.889Z" transform="translate(-231.742 -180.471)" fill="#5661ae"/>
    <path id="Path_690" data-name="Path 690" d="M598.866,657.889a26.65,26.65,0,1,0-26.65-26.65A26.651,26.651,0,0,0,598.866,657.889Z" transform="translate(-231.742 -180.471)" fill="#5661ae"/>
    <path id="Path_691" data-name="Path 691" d="M456.263,875.646A26.65,26.65,0,1,0,429.613,849,26.65,26.65,0,0,0,456.263,875.646Z" transform="translate(-214.205 -207.251)" fill="#5661ae"/>
    <path id="Path_692" data-name="Path 692" d="M619.972,642.677,582.507,801.958H537.7l30.272-166.982Z" transform="translate(-227.498 -184.208)" fill="#5661ae"/>
    <path id="Path_693" data-name="Path 693" d="M487.832,620.9,389.157,651.61l2.327-12.968Z" transform="translate(-209.23 -182.477)" fill="#465393"/>
    <path id="Path_694" data-name="Path 694" d="M524.6,505.629l9.8,7.133,32.738-53.737s-4.359-17.6-4.659-20.6l10.652-1.519s8.627-16.261,11.087-19.478,5.3-2.649,6.811,0c0,0,4.73.757,5.487,7.19,0,0,4.162.946,5.865,9.27,0,0,3.595,3.784,2.838,7.947s-10.216,20.475-11.73,22.157a41.166,41.166,0,0,0-3.216,4.33l-31.532,75.558s-7.7,16.527-25.761,10.259L510.6,543.767C500.323,537.109,524.6,505.629,524.6,505.629Z" transform="translate(-223.853 -157.184)" fill="#fecebb"/>
    <path id="Path_695" data-name="Path 695" d="M543.089,570.563a18.846,18.846,0,1,0-18.846-18.845A18.846,18.846,0,0,0,543.089,570.563Z" transform="translate(-225.843 -171.652)" fill="#fecebb"/>
    <path id="Path_696" data-name="Path 696" d="M451.467,418.594s18.44-6.211,22.128-19.216-4.076-19.8-14.169-13.2c0,0-7.182-11.452-19.411-3.494s-9.9,26.787-9.51,30.475c0,0-13.782,9.705-7.182,25.04s24.708,19.022,24.708,19.022a27.4,27.4,0,0,0,4.213-9.51s-9.98-7.57-4.213-14.946,12.365,4.464,12.365,4.464S465.443,420.535,451.467,418.594Z" transform="translate(-213.212 -152.836)" fill="#465393"/>
    <path id="Path_697" data-name="Path 697" d="M431.958,482.232s-12.8,6.365-15.7,13.22c-2.68,6.334-21.319,89.526-27.026,123.015a4.92,4.92,0,0,0,5.9,5.638l92.7-20.259s-4.534-48.722-2.945-63.021-13.577-50.053-13.577-50.053Z" transform="translate(-209.23 -165.424)" fill="#fff"/>
    <path id="Path_698" data-name="Path 698" d="M494.659,554.781l-23.372-13.889L495.606,580.9Z" transform="translate(-219.33 -172.638)" fill="#96bafd"/>
    <path id="Path_699" data-name="Path 699" d="M538.1,523.356,544.9,528.1l6.587-26.726Z" transform="translate(-227.546 -167.778)" fill="#fcb99f"/>
    <path id="Path_700" data-name="Path 700" d="M479.723,491.97s37.2,20.336,41.716,23.67a3.052,3.052,0,0,1,.894,3.867l-17.085,32.8a3.052,3.052,0,0,1-4.268,1.214l-43.358-25.767S455.314,493.458,479.723,491.97Z" transform="translate(-217.642 -166.622)" fill="#fff"/>
    <path id="Path_703" data-name="Path 703" d="M485.713,428.762s-.211,4.024,2.254,2.964c2.32-1.093,4.3-.34,2.849,2.714" transform="translate(-221.104 -158.848)" fill="none" stroke="#fcb99f" stroke-linecap="round" stroke-linejoin="round" stroke-width="1.209"/>
    <path id="Path_707" data-name="Path 707" d="M1173.166,257.634l-68.5,53.268h132.553Z" transform="translate(-297.223 -137.803)" fill="#febb94"/>
    <path id="Path_708" data-name="Path 708" d="M914.41,568.051s-25.118-21.926-45.539-3.293-104.8,146.584-104.8,146.584l25.52,17.648L885.3,621.355l16.66,26.816Z" transform="translate(-255.337 -174.65)" fill="#fcba9f"/>
    <path id="Path_709" data-name="Path 709" d="M908.333,846.169c10.521-7.688,21.365-15.613,32.785-18.172a1.818,1.818,0,0,1,2.221,1.66l1.252,21.187a1.807,1.807,0,0,1-1.454,1.88l-78.228,15.462c-5.768,1.14-9.467-1.368-11.241-5.823a.855.855,0,0,1,1.1-1.1,41.9,41.9,0,0,0,31.609-1.1C893.592,856.941,900.881,851.614,908.333,846.169Z" transform="translate(-266.348 -207.94)" fill="#5661ae" fill-rule="evenodd"/>
    <path id="Path_710" data-name="Path 710" d="M932.668,769.44s1.481,33.439,2.262,36.841a39.422,39.422,0,0,0,2.014,5.437c1.341,3.2,2.834,6.758,2.971,9.346-10.859,2.892-21.2,10.451-31.253,17.793-7.452,5.444-14.74,10.769-21.957,13.986a41.929,41.929,0,0,1-30.165,1.61c-1.36-5.781,2.588-12.179,12.548-15.062,17.853-5.167,27.609-8.441,33.834-23.373,4.424-10.611-2.985-47.552-2.985-47.552Z" transform="translate(-266.676 -200.625)" fill="#ffccb3" fill-rule="evenodd"/>
    <path id="Path_711" data-name="Path 711" d="M909.468,815.842c3.511-.216,17.459-1.134,30.812-2.88,2.6-.339,4.911,4.535,3.8,7.635a44.217,44.217,0,0,0-1.62,6.934,67.274,67.274,0,0,0-12.475,6.085c.808-5.524-2.562-7.97-7.568-7.719-3.954.2-12.887,2.711-17.492,4.074a1.383,1.383,0,0,1-1.655-1.886l5.015-11.418a1.379,1.379,0,0,1,1.18-.825Z" transform="translate(-272.441 -206.095)" fill="#fff" fill-rule="evenodd"/>
    <path id="Path_712" data-name="Path 712" d="M867.775,865.932c9.088.711,14.585-1.651,14.585-1.651l-3.657-18.5-14.219,3.5Z" transform="translate(-267.685 -210.133)" fill="#fff" fill-rule="evenodd"/>
    <path id="Path_713" data-name="Path 713" d="M730.9,769.242c12.994.968,26.388,1.967,36.741,7.423a1.819,1.819,0,0,1,.615,2.7l-12.785,16.941a1.807,1.807,0,0,1-2.326.488l-69.58-38.951c-5.131-2.872-6.321-7.181-4.783-11.722a.855.855,0,0,1,1.552-.125,41.9,41.9,0,0,0,24.779,19.654C712.7,767.885,721.7,768.556,730.9,769.242Z" transform="translate(-244.772 -197.808)" fill="#5661ae" fill-rule="evenodd"/>
    <path id="Path_714" data-name="Path 714" d="M794.6,726.977l-22.166,29.514a39.477,39.477,0,0,0-1.992,5.445c-1.052,3.3-2.224,6.982-3.8,9.041-10.143-4.839-22.919-5.792-35.33-6.719-9.2-.687-18.2-1.358-25.784-3.589a41.932,41.932,0,0,1-24.008-18.333c2.712-5.282,9.867-7.594,19.319-3.33,16.941,7.642,26.492,11.475,40.912,4.143A24.565,24.565,0,0,0,747.919,738l22.4-32.983Z" transform="translate(-245.185 -192.821)" fill="#fcba9f" fill-rule="evenodd"/>
    <path id="Path_715" data-name="Path 715" d="M753.169,744.136c2.813,2.112,14.026,10.456,25.325,17.785,2.2,1.425.8,6.637-2.056,8.279a44.1,44.1,0,0,0-5.729,4.228,67.249,67.249,0,0,0-13.442-3.456c4.2-3.682,3.218-7.729-.758-10.783-3.139-2.413-11.568-6.293-15.958-8.24a1.386,1.386,0,0,1-.82-1.243,1.383,1.383,0,0,1,.784-1.266L751.736,744a1.377,1.377,0,0,1,1.433.138Z" transform="translate(-252.343 -197.599)" fill="#fff" fill-rule="evenodd"/>
    <path id="Path_716" data-name="Path 716" d="M688.942,754.765c6.458,6.434,12.174,8.2,12.174,8.2l9.212-16.456-13.094-6.556Z" transform="translate(-246.097 -197.118)" fill="#fff" fill-rule="evenodd"/>
    <path id="Path_717" data-name="Path 717" d="M965.479,551.425,899.25,563.191l13.036,52.426h42.423S974.876,572.272,965.479,551.425Z" transform="translate(-271.961 -173.933)" fill="#ffccb3"/>
    <path id="Path_718" data-name="Path 718" d="M905.192,616.559a26.65,26.65,0,1,0-26.651-26.65A26.65,26.65,0,0,0,905.192,616.559Z" transform="translate(-269.414 -175.389)" fill="#ffccb3"/>
    <path id="Path_719" data-name="Path 719" d="M878.918,598.434l26.668,166.978,30.759,1.284-3.591-165.058Z" transform="translate(-269.46 -179.714)" fill="#ffccb3"/>
    <path id="Path_720" data-name="Path 720" d="M926.553,556.254s10.207,3.143,14.42,19.791-.384,39.808-.384,39.808h6.564s23.4-27.482,6.185-62.508Z" transform="translate(-275.318 -174.169)" fill="#ff967c"/>
    <path id="Path_721" data-name="Path 721" d="M988.393,393.847l-8.336,4a24.083,24.083,0,0,0-12.953,15.9L948.26,489.572l-42.485,20.314,9.686,15.384,80.327-2.849Z" transform="translate(-272.763 -154.554)" fill="#5661ae"/>
    <path id="Path_722" data-name="Path 722" d="M984.96,424.97s-14.628,20.551-7.549,40.125,4.189,23.2,2.418,40.545,4.01,13.308,4.01,13.308l20.521-9.679S1012.92,427.242,984.96,424.97Z" transform="translate(-281.335 -158.382)" fill="#465393"/>
    <path id="Path_723" data-name="Path 723" d="M1061.439,532.156s8.112,39.69-2.517,56.277c-13.453,20.994-29.906,24.209-42.071,24.435H937.022s-.147-49.8-39.475-58.312C897.547,554.555,1026.98,518.507,1061.439,532.156Z" transform="translate(-271.751 -171.184)" fill="#1f2d49"/>
    <path id="Path_724" data-name="Path 724" d="M1074.6,545.062l-84.6,2.785.9-5.909,16.488-1.906h67.092Z" transform="translate(-283.121 -172.532)" fill="#0d1b33"/>
    <path id="Path_725" data-name="Path 725" d="M957.653,524.562s-10.35,3.008-15,4.375-13.842,4.65-13.842,4.65l6.731,9.572,30.5-1.815Z" transform="translate(-275.596 -170.63)" fill="#ffccb3"/>
    <path id="Path_726" data-name="Path 726" d="M1013.814,384.721s-17.369,6.874-20.022,9-5.171,19.44-9.68,27.663-11.106,23.4-1.471,37.34,8.611,25.011,8.611,25.011L989.2,518.7l80.375,2.445a5.161,5.161,0,0,0,5.043-3.477,5.272,5.272,0,0,0,.263-2.154c-.921-10.2-2.473-25.428-2.806-41.664-.448-22-.781-95.522-.781-95.522l-36.177-1.135C1027.837,378.45,1013.814,384.721,1013.814,384.721Z" transform="translate(-281.606 -152.507)" fill="#5661ae"/>
    <path id="Path_727" data-name="Path 727" d="M1081.684,417.522a19.517,19.517,0,1,0-19.514-19.516A19.514,19.514,0,0,0,1081.684,417.522Z" transform="translate(-291.997 -152.666)" fill="#5661ae"/>
    <path id="Path_728" data-name="Path 728" d="M1074.726,522.923s-1.666,6.1-19.514,13.233c0,0-41.843-.909-62.631-.473s2.229-5.046,13.833-10.832,67-21.855,67-21.855Z" transform="translate(-282.408 -167.977)" fill="#465393"/>
    <path id="Path_729" data-name="Path 729" d="M1061.155,412.756s-12.1,11.033-12.813,19.219-2.359,31.011-17.909,33.288c-19.067,2.791-24.057,5.508-15.216,7.643s28.889-1.325,28.889,7.83c0,6.514,7.788,11.389,11.708,7.83S1090.913,430.908,1061.155,412.756Z" transform="translate(-285.702 -156.88)" fill="#465393"/>
    <path id="Path_730" data-name="Path 730" d="M1088.163,403.224c-1.64,7.832-17.251,90.342-17.251,90.342s-2.052,12.343-14.111,15.4l-84.11,21.383-14.8-22.2,76.282-26.088,15.172-81.688S1090.356,392.776,1088.163,403.224Z" transform="translate(-279.172 -155.029)" fill="#5661ae"/>
    <path id="Path_731" data-name="Path 731" d="M1016.65,365.607l.8,27.076s-.21,4.671,5.455,4.041,17.084-4.869,20.233-10.329,1.158-7.333,1.158-7.333l-17.3-33.731Z" transform="translate(-286.399 -148.588)" fill="#ffccb3"/>
    <path id="Path_732" data-name="Path 732" d="M1016.65,370.86l7.086-8.4-6.481,25.846Z" transform="translate(-286.399 -150.694)" fill="#ff967c"/>
    <path id="Path_733" data-name="Path 733" d="M1023.843,288.29a28.06,28.06,0,0,1,3.254-14.883c4.034-7.286,12.4-17.363,25.118-13.022s22.013,14.108,17.207,27.9-18.154,18.213-24.96,16.743S1023.843,288.29,1023.843,288.29Z" transform="translate(-287.277 -138.012)" fill="#080b09"/>
    <path id="Path_734" data-name="Path 734" d="M1019.18,294.06a6.962,6.962,0,0,1,7.314-3.282c5.034.926,10.323,4.9,14.83,9.663s4.35,8.225,2.307,10.334S1019.18,294.06,1019.18,294.06Z" transform="translate(-286.71 -141.863)" fill="#febb94"/>
    <path id="Path_735" data-name="Path 735" d="M892.038,452.055l32.252,89.351h64.845a10.289,10.289,0,0,0-10.287-10.288H931.935l-27.849-79.063Z" transform="translate(-271.074 -161.713)" fill="#fff"/>
    <path id="Path_736" data-name="Path 736" d="M879.838,452.055h-87l33.647,89.351H912.09Z" transform="translate(-258.874 -161.713)" fill="#d4dcf4"/>
    <path id="Path_737" data-name="Path 737" d="M859.724,512.822a7.846,7.846,0,1,0-7.846-7.847A7.846,7.846,0,0,0,859.724,512.822Z" transform="translate(-266.135 -167.256)" fill="#fff"/>
    <path id="Path_738" data-name="Path 738" d="M976.492,327.935s2.683,25.916,15.292,37.716c8.225,7.695,15.767,5.724,27.011-9.677,10.3-14.122,11.208-20.989,11.208-20.989l-10.893-24.514S975.211,304.223,976.492,327.935Z" transform="translate(-281.457 -144.209)" fill="#ffccb3"/>
    <path id="Path_739" data-name="Path 739" d="M979.987,320.839s6.2,9.875,17.563,10.035a17.905,17.905,0,0,0,17.286,3.041s-4.526-6.873,0-9.282c7.7-4.09,10.349,9.549,6.244,14.3-2.789,3.228.158,6.987,2.237,10.348s8.805,11.684,8.805,11.684a11.6,11.6,0,0,1,2.4-8.322c3.043-3.521,12.9-39.569-5.42-52.829s-37.609-2.652-41.224,0c0,0-19.253,3.363-19.287,23.386-.029,17.118,12.154,21.19,12.154,21.19l-3.636-13.817S979.359,330.811,979.987,320.839Z" transform="translate(-280.489 -142.187)" fill="#080b09"/>
    <path id="Path_745" data-name="Path 745" d="M991.573,348.036l-1.069,7.982,2.819,1.361" transform="translate(-283.183 -148.921)" fill="none" stroke="#e56441" stroke-linecap="round" stroke-width="0.947"/>
    <path id="Path_746" data-name="Path 746" d="M1182.77,240.831V121" transform="translate(-306.828 -121)" fill="none" stroke="#5661ae" stroke-miterlimit="10" stroke-width="1"/>
  </g>
</svg>
