<svg id="undraw_pair_programming_re_or4x" xmlns="http://www.w3.org/2000/svg" xmlns:xlink="http://www.w3.org/1999/xlink" width="175.443" height="114.869" viewBox="0 0 175.443 114.869">
  <defs>
    <linearGradient id="linear-gradient" x1="0.5" x2="0.5" y2="1" gradientUnits="objectBoundingBox">
      <stop offset="0" stop-color="#037bdb"/>
      <stop offset="1" stop-color="#1a99ff"/>
    </linearGradient>
  </defs>
  <circle id="Ellipse_45" data-name="Ellipse 45" cx="5.322" cy="5.322" r="5.322" transform="translate(81.497 8.883)" fill="#fff5ec"/>
  <path id="Path_995" data-name="Path 995" d="M602.67,212.8a2.638,2.638,0,0,0-2.227-1.852h-.036a.285.285,0,0,0-.044-.01,6.5,6.5,0,0,0-5.1,1.555,4.775,4.775,0,0,0-1.162,1.6,2.575,2.575,0,0,0-2.159-1.052,2.628,2.628,0,0,0-2.352,1.9.3.3,0,0,0,.138.337,1.33,1.33,0,0,0,.556.283c.44.094.885.179,1.33.257q1.3.227,2.621.369.87.093,1.744.148c1.2.076,2.414.094,3.62.056a4.13,4.13,0,0,0,1.718-.3,2.552,2.552,0,0,0,.987-.859A2.9,2.9,0,0,0,602.67,212.8Z" transform="translate(-503.939 -201.119)" fill="#e6e6e6"/>
  <path id="Path_996" data-name="Path 996" d="M547.287,249.069a2.716,2.716,0,0,0-.112-.658,2.643,2.643,0,0,0-2.228-1.852.192.192,0,0,0-.034,0,.373.373,0,0,0-.046-.01,6.617,6.617,0,0,0-2.928.3,5.424,5.424,0,0,0-3.329,2.856,2.576,2.576,0,0,0-2.161-1.052,2.628,2.628,0,0,0-2.352,1.9.31.31,0,0,0,.138.337,1.343,1.343,0,0,0,.556.283c.442.094.885.179,1.331.257q1.3.227,2.619.369a38.9,38.9,0,0,0,5.366.2,4.136,4.136,0,0,0,1.718-.3,2.546,2.546,0,0,0,.985-.859A2.844,2.844,0,0,0,547.287,249.069Z" transform="translate(-459.505 -229.63)" fill="#e6e6e6"/>
  <path id="Path_997" data-name="Path 997" d="M853.869,508.41a34.255,34.255,0,0,1-1.484,10.719c-.037.126-.082.252-.126.378H830.422a19.594,19.594,0,0,1,1.476-4.451c1.817-3.857,4.784-7.158,7.714-10.437,4.035-4.517,7.974-9,8.6-14.872a33.741,33.741,0,0,1,3.8,7.841,9.214,9.214,0,0,0-3.049,1.869c-.245.23-.5.564-.378.883.119.267.445.356.734.415.7.133,1.395.267,2.092.393.549.111,1.105.215,1.661.319A36.417,36.417,0,0,1,853.869,508.41Z" transform="translate(-696.771 -424.39)" fill="#f2f2f2"/>
  <path id="Path_998" data-name="Path 998" d="M908.8,570.022c-3.5,2.129-5.726,5.422-7.544,9.109a9.316,9.316,0,0,0-4.235,2.225c-.252.23-.512.564-.378.883.111.267.445.356.734.415.69.134,1.395.267,2.084.393-.067.156-.133.319-.2.475H876.12a32.722,32.722,0,0,1,3.479-3.976c.274-.275.556-.534.846-.8a34.616,34.616,0,0,1,10.014-6.32A35.228,35.228,0,0,1,908.8,570.022Z" transform="translate(-733.36 -488.406)" fill="#f2f2f2"/>
  <path id="Path_999" data-name="Path 999" d="M812.388,515.663H791.781a33.468,33.468,0,0,1,.03-4.955,35.433,35.433,0,0,1,14.724-25.762c-1.068,3.805-.519,7.588.593,11.386-.156.052-.311.1-.452.156a9.216,9.216,0,0,0-3.049,1.869c-.245.23-.5.564-.378.883.111.267.445.356.734.415.7.134,1.394.267,2.084.393.556.111,1.113.215,1.669.326.26.044.519.1.779.148.037.089.059.171.1.252a68.617,68.617,0,0,1,3.4,10.911,25.466,25.466,0,0,1,.341,2.8C812.373,514.877,812.388,515.27,812.388,515.663Z" transform="translate(-665.77 -420.547)" fill="#f2f2f2"/>
  <path id="Path_1000" data-name="Path 1000" d="M237.869,508.41a34.255,34.255,0,0,1-1.484,10.719c-.037.126-.082.252-.126.378H214.422a19.6,19.6,0,0,1,1.476-4.451c1.817-3.857,4.784-7.158,7.714-10.437,4.035-4.517,7.974-9,8.6-14.872a33.736,33.736,0,0,1,3.8,7.841,9.216,9.216,0,0,0-3.049,1.869c-.245.23-.5.564-.378.883.119.267.445.356.734.415.7.133,1.395.267,2.092.393.549.111,1.105.215,1.662.319A36.424,36.424,0,0,1,237.869,508.41Z" transform="translate(-203.558 -424.39)" fill="#f2f2f2"/>
  <path id="Path_1001" data-name="Path 1001" d="M292.8,570.022c-3.5,2.129-5.726,5.422-7.544,9.109a9.317,9.317,0,0,0-4.236,2.225c-.252.23-.512.564-.378.883.111.267.445.356.734.415.69.134,1.395.267,2.084.393-.067.156-.133.319-.2.475H260.12a32.719,32.719,0,0,1,3.479-3.976c.274-.274.556-.534.846-.8a34.616,34.616,0,0,1,10.014-6.32,35.228,35.228,0,0,1,18.344-2.4Z" transform="translate(-240.147 -488.406)" fill="#f2f2f2"/>
  <path id="Path_1002" data-name="Path 1002" d="M196.388,515.663H175.781a33.472,33.472,0,0,1,.03-4.955,35.434,35.434,0,0,1,14.724-25.762c-1.068,3.805-.519,7.588.593,11.386-.156.052-.312.1-.452.156a9.216,9.216,0,0,0-3.049,1.869c-.245.23-.5.564-.378.883.111.267.445.356.734.415.7.134,1.395.267,2.084.393.556.111,1.113.215,1.669.326.26.044.519.1.779.148.037.089.059.171.1.252a68.612,68.612,0,0,1,3.4,10.911,25.481,25.481,0,0,1,.341,2.8C196.373,514.877,196.388,515.27,196.388,515.663Z" transform="translate(-172.558 -420.547)" fill="#f2f2f2"/>
  <path id="Path_1003" data-name="Path 1003" d="M664.33,259.779l18.412,1.635.2.018V182.867l-.2-.138a57.472,57.472,0,0,0-12.361-6.566l-.941,12.976-.086,1.188-.931,12.869-.287,3.959-3.773,52.165Z" transform="translate(-563.786 -173.314)" fill="#e6e6e6"/>
  <path id="Path_1004" data-name="Path 1004" d="M434.315,178.866c-.132.084-.263.167-.395.255v79.772l.395-.036,18.213-1.617-.034-.458-3.773-52.165-.287-3.959L447.5,187.79l-.086-1.188-.987-13.608A57.344,57.344,0,0,0,434.315,178.866Z" transform="translate(-379.304 -170.776)" fill="#e6e6e6"/>
  <path id="Path_1005" data-name="Path 1005" d="M430.741,202.709c-.265.171-.53.347-.791.524v80.336a4.139,4.139,0,0,0,2.781,4.118,3.04,3.04,0,0,0,.8.106h59.161a3.013,3.013,0,0,0,.8-.106,3.4,3.4,0,0,0,1.551-.929,4.568,4.568,0,0,0,1.232-3.189V204.631c-.327-.241-.656-.48-.989-.714l-.2-.138v79.79a3.209,3.209,0,0,1-.092.767,2.489,2.489,0,0,1-2.3,2.055H433.528a2.636,2.636,0,0,1-2.392-2.822V202.454C431,202.538,430.873,202.621,430.741,202.709Z" transform="translate(-376.125 -194.363)" fill="#e6e6e6"/>
  <rect id="Rectangle_86" data-name="Rectangle 86" width="65.132" height="1.188" transform="translate(54.418 15.827)" fill="#e6e6e6"/>
  <path id="Path_1006" data-name="Path 1006" d="M654.828,164.149c-.395-.1-.789-.189-1.188-.275v32.254h1.188Z" transform="translate(-555.227 -163.473)" fill="#e6e6e6"/>
  <path id="Path_1007" data-name="Path 1007" d="M534.188,161.864c-.4.074-.793.149-1.188.231v32.423h1.188Z" transform="translate(-458.634 -161.864)" fill="#e6e6e6"/>
  <path id="Path_1008" data-name="Path 1008" d="M368.86,598.688a5.324,5.324,0,0,0,.385,1.989,5.094,5.094,0,0,0,.349.71,5.4,5.4,0,0,0,.6.833,5.334,5.334,0,0,0,4.01,1.816h78a5.346,5.346,0,0,0,0-10.692h-78A5.351,5.351,0,0,0,368.86,598.688Z" transform="translate(-327.212 -507.337)" fill="#e6e6e6"/>
  <rect id="Rectangle_87" data-name="Rectangle 87" width="64.736" height="3.959" transform="translate(119.153 33.843) rotate(180)" fill="#e6e6e6"/>
  <path id="Path_1009" data-name="Path 1009" d="M0,0H5.543A2.178,2.178,0,0,1,3.365,2.178H2.178A2.178,2.178,0,0,1,0,0H0Z" transform="translate(89.557 30.873) rotate(180)" fill="#e6e6e6"/>
  <path id="Path_1010" data-name="Path 1010" d="M159.92,635.474a57.614,57.614,0,0,0,5.605,5.771H326.3a57.611,57.611,0,0,0,5.605-5.771Z" transform="translate(-159.92 -541.069)" fill="#3f3d56"/>
  <path id="Path_1011" data-name="Path 1011" d="M556.61,535.894v20.443h14.322V535.894a.687.687,0,0,0-.484-.658.634.634,0,0,0-.205-.032H557.3a.69.69,0,0,0-.692.69Zm5.589,7.024a1.529,1.529,0,1,1,3.058,0v2.372a1.529,1.529,0,1,1-3.058,0Z" transform="translate(-477.538 -460.786)" fill="#2f2e41"/>
  <path id="Path_1012" data-name="Path 1012" d="M556.39,637.944v1.971a.388.388,0,0,0,.385.387h13.64a.387.387,0,0,0,.385-.387v-1.971Z" transform="translate(-477.362 -543.047)" fill="#3f3d56"/>
  <path id="Path_1013" data-name="Path 1013" d="M443.58,376.946v37.327a1.8,1.8,0,0,0,1.794,1.794h55.314a1.8,1.8,0,0,0,1.794-1.794V376.946a1.8,1.8,0,0,0-1.794-1.792H445.374A1.8,1.8,0,0,0,443.58,376.946Z" transform="translate(-387.038 -332.639)" fill="#3f3d56"/>
  <path id="Path_1014" data-name="Path 1014" d="M450.09,382.615v36.4a.961.961,0,0,0,.959.959H505.44a.961.961,0,0,0,.959-.959v-36.4a.961.961,0,0,0-.959-.961H451.049A.961.961,0,0,0,450.09,382.615Z" transform="translate(-392.25 -337.843)" fill="url(#linear-gradient)"/>
  <path id="Path_1015" data-name="Path 1015" d="M505.192,638.629a.588.588,0,0,0,.462.221h32.359a.6.6,0,0,0,.582-.718l-.5-2.386a.6.6,0,0,0-.371-.433.578.578,0,0,0-.211-.04H506.155a.578.578,0,0,0-.211.04.6.6,0,0,0-.371.433l-.5,2.386A.6.6,0,0,0,505.192,638.629Z" transform="translate(-436.262 -540.909)" fill="#2f2e41"/>
  <rect id="Rectangle_88" data-name="Rectangle 88" width="0.997" height="0.598" rx="0.299" transform="translate(101.02 95.392) rotate(180)" fill="#3f3d56"/>
  <rect id="Rectangle_89" data-name="Rectangle 89" width="0.997" height="0.598" rx="0.299" transform="translate(99.027 95.392) rotate(180)" fill="#3f3d56"/>
  <rect id="Rectangle_90" data-name="Rectangle 90" width="0.997" height="0.598" rx="0.299" transform="translate(97.033 95.392) rotate(180)" fill="#3f3d56"/>
  <rect id="Rectangle_91" data-name="Rectangle 91" width="0.997" height="0.598" rx="0.299" transform="translate(95.04 95.392) rotate(180)" fill="#3f3d56"/>
  <rect id="Rectangle_92" data-name="Rectangle 92" width="0.997" height="0.598" rx="0.299" transform="translate(93.047 95.392) rotate(180)" fill="#3f3d56"/>
  <rect id="Rectangle_93" data-name="Rectangle 93" width="0.997" height="0.598" rx="0.299" transform="translate(91.053 95.392) rotate(180)" fill="#3f3d56"/>
  <rect id="Rectangle_94" data-name="Rectangle 94" width="0.997" height="0.598" rx="0.299" transform="translate(89.06 95.392) rotate(180)" fill="#3f3d56"/>
  <rect id="Rectangle_95" data-name="Rectangle 95" width="0.997" height="0.598" rx="0.299" transform="translate(87.067 95.392) rotate(180)" fill="#3f3d56"/>
  <rect id="Rectangle_96" data-name="Rectangle 96" width="0.997" height="0.598" rx="0.299" transform="translate(85.074 95.392) rotate(180)" fill="#3f3d56"/>
  <rect id="Rectangle_97" data-name="Rectangle 97" width="0.997" height="0.598" rx="0.299" transform="translate(83.08 95.392) rotate(180)" fill="#3f3d56"/>
  <rect id="Rectangle_98" data-name="Rectangle 98" width="0.997" height="0.598" rx="0.299" transform="translate(81.087 95.392) rotate(180)" fill="#3f3d56"/>
  <rect id="Rectangle_99" data-name="Rectangle 99" width="0.997" height="0.598" rx="0.299" transform="translate(79.094 95.392) rotate(180)" fill="#3f3d56"/>
  <rect id="Rectangle_100" data-name="Rectangle 100" width="0.997" height="0.598" rx="0.299" transform="translate(77.1 95.392) rotate(180)" fill="#3f3d56"/>
  <rect id="Rectangle_101" data-name="Rectangle 101" width="0.997" height="0.598" rx="0.299" transform="translate(75.107 95.392) rotate(180)" fill="#3f3d56"/>
  <rect id="Rectangle_102" data-name="Rectangle 102" width="0.997" height="0.598" rx="0.299" transform="translate(73.114 95.392) rotate(180)" fill="#3f3d56"/>
  <rect id="Rectangle_103" data-name="Rectangle 103" width="0.997" height="0.598" rx="0.299" transform="translate(71.121 95.392) rotate(180)" fill="#3f3d56"/>
  <rect id="Rectangle_104" data-name="Rectangle 104" width="0.997" height="0.598" rx="0.299" transform="translate(101.044 96.389) rotate(180)" fill="#3f3d56"/>
  <rect id="Rectangle_105" data-name="Rectangle 105" width="0.997" height="0.598" rx="0.299" transform="translate(99.05 96.389) rotate(180)" fill="#3f3d56"/>
  <rect id="Rectangle_106" data-name="Rectangle 106" width="0.997" height="0.598" rx="0.299" transform="translate(97.057 96.389) rotate(180)" fill="#3f3d56"/>
  <rect id="Rectangle_107" data-name="Rectangle 107" width="0.997" height="0.598" rx="0.299" transform="translate(95.064 96.389) rotate(180)" fill="#3f3d56"/>
  <rect id="Rectangle_108" data-name="Rectangle 108" width="0.997" height="0.598" rx="0.299" transform="translate(93.07 96.389) rotate(180)" fill="#3f3d56"/>
  <rect id="Rectangle_109" data-name="Rectangle 109" width="0.997" height="0.598" rx="0.299" transform="translate(91.077 96.389) rotate(180)" fill="#3f3d56"/>
  <rect id="Rectangle_110" data-name="Rectangle 110" width="0.997" height="0.598" rx="0.299" transform="translate(89.084 96.389) rotate(180)" fill="#3f3d56"/>
  <rect id="Rectangle_111" data-name="Rectangle 111" width="0.997" height="0.598" rx="0.299" transform="translate(87.09 96.389) rotate(180)" fill="#3f3d56"/>
  <rect id="Rectangle_112" data-name="Rectangle 112" width="0.997" height="0.598" rx="0.299" transform="translate(85.097 96.389) rotate(180)" fill="#3f3d56"/>
  <rect id="Rectangle_113" data-name="Rectangle 113" width="0.997" height="0.598" rx="0.299" transform="translate(83.104 96.389) rotate(180)" fill="#3f3d56"/>
  <rect id="Rectangle_114" data-name="Rectangle 114" width="0.997" height="0.598" rx="0.299" transform="translate(81.111 96.389) rotate(180)" fill="#3f3d56"/>
  <rect id="Rectangle_115" data-name="Rectangle 115" width="0.997" height="0.598" rx="0.299" transform="translate(79.117 96.389) rotate(180)" fill="#3f3d56"/>
  <rect id="Rectangle_116" data-name="Rectangle 116" width="0.997" height="0.598" rx="0.299" transform="translate(77.124 96.389) rotate(180)" fill="#3f3d56"/>
  <rect id="Rectangle_117" data-name="Rectangle 117" width="0.997" height="0.598" rx="0.299" transform="translate(75.131 96.389) rotate(180)" fill="#3f3d56"/>
  <rect id="Rectangle_118" data-name="Rectangle 118" width="0.997" height="0.598" rx="0.299" transform="translate(73.137 96.389) rotate(180)" fill="#3f3d56"/>
  <rect id="Rectangle_119" data-name="Rectangle 119" width="0.997" height="0.598" rx="0.299" transform="translate(71.144 96.389) rotate(180)" fill="#3f3d56"/>
  <rect id="Rectangle_120" data-name="Rectangle 120" width="7.973" height="0.598" rx="0.299" transform="translate(91.476 97.585) rotate(180)" fill="#3f3d56"/>
  <path id="Path_1016" data-name="Path 1016" d="M467.8,405.185h50.894a.2.2,0,0,0,0-.4H467.8a.2.2,0,0,0,0,.4Z" transform="translate(-406.267 -356.36)" fill="#3f3d56"/>
  <ellipse id="Ellipse_46" data-name="Ellipse 46" cx="1.186" cy="1.213" rx="1.186" ry="1.213" transform="translate(107.775 44.962)" fill="#3f3d56"/>
  <ellipse id="Ellipse_47" data-name="Ellipse 47" cx="1.186" cy="1.213" rx="1.186" ry="1.213" transform="translate(103.677 44.962)" fill="#3f3d56"/>
  <ellipse id="Ellipse_48" data-name="Ellipse 48" cx="1.186" cy="1.213" rx="1.186" ry="1.213" transform="translate(99.58 44.962)" fill="#3f3d56"/>
  <path id="Path_1017" data-name="Path 1017" d="M479.9,389.155a.218.218,0,0,0,.217.219h2.91a.22.22,0,0,0,0-.441h-2.91A.22.22,0,0,0,479.9,389.155Z" transform="translate(-416.118 -343.672)" fill="#3f3d56"/>
  <path id="Path_1018" data-name="Path 1018" d="M479.9,393.305a.218.218,0,0,0,.217.219h2.91a.22.22,0,1,0,0-.441h-2.91a.22.22,0,0,0-.217.221Z" transform="translate(-416.118 -346.995)" fill="#3f3d56"/>
  <path id="Path_1019" data-name="Path 1019" d="M479.9,397.453a.22.22,0,0,0,.217.221h2.91a.22.22,0,0,0,0-.441h-2.91A.218.218,0,0,0,479.9,397.453Z" transform="translate(-416.118 -350.318)" fill="#3f3d56"/>
  <rect id="Rectangle_121" data-name="Rectangle 121" width="2.194" height="1.148" rx="0.574" transform="translate(63.061 53.529)" fill="#e6e6e6"/>
  <rect id="Rectangle_122" data-name="Rectangle 122" width="2.194" height="1.148" rx="0.574" transform="translate(75.021 53.529)" fill="#e6e6e6"/>
  <rect id="Rectangle_123" data-name="Rectangle 123" width="2.194" height="1.148" rx="0.574" transform="translate(78.41 53.529)" fill="#e6e6e6"/>
  <rect id="Rectangle_124" data-name="Rectangle 124" width="7.647" height="1.148" rx="0.574" transform="translate(66.314 53.433)" fill="#e6e6e6"/>
  <rect id="Rectangle_125" data-name="Rectangle 125" width="7.647" height="1.148" rx="0.574" transform="translate(82.261 53.433)" fill="#e6e6e6"/>
  <rect id="Rectangle_126" data-name="Rectangle 126" width="2.194" height="1.148" rx="0.574" transform="translate(66.251 56.12)" fill="#e6e6e6"/>
  <rect id="Rectangle_127" data-name="Rectangle 127" width="2.194" height="1.148" rx="0.574" transform="translate(78.21 56.12)" fill="#e6e6e6"/>
  <rect id="Rectangle_128" data-name="Rectangle 128" width="2.194" height="1.148" rx="0.574" transform="translate(81.599 56.12)" fill="#e6e6e6"/>
  <rect id="Rectangle_129" data-name="Rectangle 129" width="7.647" height="1.148" rx="0.574" transform="translate(69.504 56.024)" fill="#e6e6e6"/>
  <rect id="Rectangle_130" data-name="Rectangle 130" width="7.647" height="1.148" rx="0.574" transform="translate(85.45 56.024)" fill="#e6e6e6"/>
  <rect id="Rectangle_131" data-name="Rectangle 131" width="2.194" height="1.148" rx="0.574" transform="translate(69.44 58.711)" fill="#e6e6e6"/>
  <rect id="Rectangle_132" data-name="Rectangle 132" width="2.194" height="1.148" rx="0.574" transform="translate(81.4 58.711)" fill="#e6e6e6"/>
  <rect id="Rectangle_133" data-name="Rectangle 133" width="2.194" height="1.148" rx="0.574" transform="translate(84.788 58.711)" fill="#e6e6e6"/>
  <rect id="Rectangle_134" data-name="Rectangle 134" width="7.647" height="1.148" rx="0.574" transform="translate(72.693 58.615)" fill="#e6e6e6"/>
  <rect id="Rectangle_135" data-name="Rectangle 135" width="7.647" height="1.148" rx="0.574" transform="translate(88.639 58.615)" fill="#e6e6e6"/>
  <rect id="Rectangle_136" data-name="Rectangle 136" width="2.194" height="1.148" rx="0.574" transform="translate(72.629 61.302)" fill="#e6e6e6"/>
  <rect id="Rectangle_137" data-name="Rectangle 137" width="2.194" height="1.148" rx="0.574" transform="translate(84.589 61.302)" fill="#e6e6e6"/>
  <rect id="Rectangle_138" data-name="Rectangle 138" width="2.194" height="1.148" rx="0.574" transform="translate(87.977 61.302)" fill="#e6e6e6"/>
  <rect id="Rectangle_139" data-name="Rectangle 139" width="7.647" height="1.148" rx="0.574" transform="translate(75.882 61.207)" fill="#e6e6e6"/>
  <rect id="Rectangle_140" data-name="Rectangle 140" width="2.194" height="1.148" rx="0.574" transform="translate(75.021 71.607)" fill="#e6e6e6"/>
  <rect id="Rectangle_141" data-name="Rectangle 141" width="2.194" height="1.148" rx="0.574" transform="translate(78.41 71.607)" fill="#e6e6e6"/>
  <rect id="Rectangle_142" data-name="Rectangle 142" width="7.647" height="1.148" rx="0.574" transform="translate(82.261 71.702)" fill="#e6e6e6"/>
  <rect id="Rectangle_143" data-name="Rectangle 143" width="2.194" height="1.148" rx="0.574" transform="translate(63.061 71.607)" fill="#e6e6e6"/>
  <rect id="Rectangle_144" data-name="Rectangle 144" width="7.647" height="1.148" rx="0.574" transform="translate(66.314 71.702)" fill="#e6e6e6"/>
  <rect id="Rectangle_145" data-name="Rectangle 145" width="2.194" height="1.148" rx="0.574" transform="translate(66.251 69.015)" fill="#e6e6e6"/>
  <rect id="Rectangle_146" data-name="Rectangle 146" width="2.194" height="1.148" rx="0.574" transform="translate(78.21 69.015)" fill="#e6e6e6"/>
  <rect id="Rectangle_147" data-name="Rectangle 147" width="2.194" height="1.148" rx="0.574" transform="translate(81.599 69.015)" fill="#e6e6e6"/>
  <rect id="Rectangle_148" data-name="Rectangle 148" width="7.647" height="1.148" rx="0.574" transform="translate(69.504 69.111)" fill="#e6e6e6"/>
  <rect id="Rectangle_149" data-name="Rectangle 149" width="2.194" height="1.148" rx="0.574" transform="translate(69.44 66.424)" fill="#e6e6e6"/>
  <rect id="Rectangle_150" data-name="Rectangle 150" width="2.194" height="1.148" rx="0.574" transform="translate(81.4 66.424)" fill="#e6e6e6"/>
  <rect id="Rectangle_151" data-name="Rectangle 151" width="2.194" height="1.148" rx="0.574" transform="translate(84.788 66.424)" fill="#e6e6e6"/>
  <rect id="Rectangle_152" data-name="Rectangle 152" width="7.647" height="1.148" rx="0.574" transform="translate(72.693 66.52)" fill="#e6e6e6"/>
  <rect id="Rectangle_153" data-name="Rectangle 153" width="2.194" height="1.148" rx="0.574" transform="translate(72.629 63.833)" fill="#e6e6e6"/>
  <rect id="Rectangle_154" data-name="Rectangle 154" width="2.194" height="1.148" rx="0.574" transform="translate(84.589 63.833)" fill="#e6e6e6"/>
  <rect id="Rectangle_155" data-name="Rectangle 155" width="2.194" height="1.148" rx="0.574" transform="translate(87.977 63.833)" fill="#e6e6e6"/>
  <rect id="Rectangle_156" data-name="Rectangle 156" width="7.647" height="1.148" rx="0.574" transform="translate(75.882 63.928)" fill="#e6e6e6"/>
  <path id="Path_1020" data-name="Path 1020" d="M305.013,554.408c-.044.022-.088.044-.132.064q-.416.206-.837.407-1.262.6-2.555,1.142a56.912,56.912,0,0,1-6.971,2.4c-.4-2.486-.785-8.348-1.156-12.66-.07-.811-.14-1.567-.209-2.234a19.364,19.364,0,0,0-.377-2.607.871.871,0,0,0-.078-.193c.038.345.078,1.373.116,2.8.02.668.038,1.423.058,2.234.094,4.15.191,9.8.289,13.012-.277.068-.556.136-.835.2-.175.042-.353.082-.53.12-.215.048-.431.1-.646.14s-.451.094-.676.138a57.828,57.828,0,0,1-11.174,1.084c-.249,0-.5,0-.746,0-.076,0-.151,0-.229,0-.219,0-.446-.008-.678-.014a57.525,57.525,0,0,1-13.124-1.892l.173-12.779.03-2.234.012-.847a3.025,3.025,0,0,0-.175.847c-.07.544-.142,1.316-.213,2.234-.273,3.54-.554,9.251-.845,12.5a48.051,48.051,0,0,1-9.115-3.45l-.367-.183c.022-.154.046-.307.068-.464.357-2.48-.064-5.707.331-8.4.3-2.079.612-4.076.925-5.771a21.076,21.076,0,0,1,1.144-4.421c.439-.9.877-1.784,1.3-2.631l.54-1.074c.1-.189.191-.377.285-.56.427-.835.829-1.607,1.2-2.29.259-.48.5-.915.718-1.3.257-.448.484-.819.672-1.1a11.024,11.024,0,0,1,5.836-4.427l.06-.016.058.024.066.03,3.8-1.389,1.7-4.084,8.713-.536,1.407,1.07.72.548.767.584,1.411,1.074.4.124.6.183,4.076,1.252.042-.018.06.016a11,11,0,0,1,5.454,3.887c.136.175.261.357.383.54.331.49.777,1.266,1.3,2.239.217.4.447.835.688,1.3.146.277,1.4,4.2,2.623,8.2,1.142,3.747,2.254,7.569,2.4,8.549.026.181.054.365.08.546.165,1.134.329,2.276.486,3.391.233,1.653.46,3.247.678,4.672Z" transform="translate(-235.265 -445.583)" fill="#3f3d56"/>
  <path id="Path_1021" data-name="Path 1021" d="M290.779,447.31l-1.694-6.536-1.5,5.64Z" transform="translate(-230.265 -352.915)" opacity="0.2"/>
  <path id="Path_1022" data-name="Path 1022" d="M169.819,585.838a1.279,1.279,0,0,0,1.232.863l5.281-.136a1.261,1.261,0,0,0,1.192-.928l.747-7.991a1.953,1.953,0,0,0,.845.174,1.926,1.926,0,1,0-.1-3.85,1.632,1.632,0,0,0-.346.036,1.305,1.305,0,0,0-.972-.419l-8.123.21a1.171,1.171,0,0,0-.2.025,1.269,1.269,0,0,0-.971,1.647Zm8.606-8.734.532-1.9a1.3,1.3,0,0,0,0-.673c.026,0,.049-.012.074-.012a1.377,1.377,0,1,1,.064,2.754,1.3,1.3,0,0,1-.675-.165Z" transform="translate(-166.664 -491.518)" fill="#2f2e41"/>
  <path id="Path_1023" data-name="Path 1023" d="M173.541,573.819c.173.99,2.119,1.685,4.458,1.564,2.151-.1,3.91-.854,4.233-1.75a1.2,1.2,0,0,0-.368-.049l-8.123.21A1.165,1.165,0,0,0,173.541,573.819Z" transform="translate(-170.826 -491.516)" fill="#3f3d56"/>
  <path id="Path_1024" data-name="Path 1024" d="M197.378,606.082a.1.1,0,0,0,.03-.013l1.147-.751a.1.1,0,0,0,0-.167l-1.192-.781a.1.1,0,0,0-.109.167l1.065.7-1.019.667a.1.1,0,0,0,.079.18Z" transform="translate(-189.776 -516.153)" fill="#6c63ff"/>
  <path id="Path_1025" data-name="Path 1025" d="M183.7,606.5a.1.1,0,0,0,.025-.183l-1.057-.606,1.022-.759a.1.1,0,0,0-.119-.16l-1.144.85a.1.1,0,0,0,.01.166l1.189.682A.1.1,0,0,0,183.7,606.5Z" transform="translate(-177.905 -516.488)" fill="#6c63ff"/>
  <path id="Path_1026" data-name="Path 1026" d="M190.457,604.8a.093.093,0,0,0,.027-.012.1.1,0,0,0,.033-.137l-1.626-2.673a.1.1,0,0,0-.17.1l1.626,2.673A.1.1,0,0,0,190.457,604.8Z" transform="translate(-182.969 -514.21)" fill="#6c63ff"/>
  <path id="Path_1027" data-name="Path 1027" d="M740.25,554.623c-.122.062-.245.124-.367.183a48.06,48.06,0,0,1-9.115,3.45c-.291-3.249-.572-8.96-.845-12.5-.072-.919-.144-1.69-.213-2.234a3.03,3.03,0,0,0-.175-.847l.012.847.03,2.234.173,12.779a57.528,57.528,0,0,1-13.124,1.892c-.231.006-.459.01-.678.014-.078,0-.153,0-.229,0-.249,0-.5,0-.745,0a57.664,57.664,0,0,1-13.861-1.68c.1-3.215.2-8.862.289-13.012.02-.811.038-1.567.058-2.234.038-1.427.078-2.456.116-2.8a.871.871,0,0,0-.078.193,19.366,19.366,0,0,0-.377,2.607c-.07.668-.14,1.423-.209,2.234-.371,4.312-.757,10.174-1.156,12.659a56.916,56.916,0,0,1-6.971-2.4q-1.794-.747-3.524-1.613c.219-1.435.448-3.044.684-4.712.183-1.294.373-2.623.566-3.937.3-2.029,10.457-23.942,12.851-24.709l.06-.016.042.018,4.076-1.252.6-.183.4-.124,1.411-1.074.767-.584.72-.548,1.407-1.07,8.713.536,1.7,4.084,3.8,1.389.066-.03.058-.024.06.016a11.024,11.024,0,0,1,5.836,4.427c.187.281.415.652.672,1.1.219.381.458.815.718,1.3.369.684.771,1.455,1.2,2.29.094.183.189.371.285.56q.266.526.54,1.074c.425.847.863,1.732,1.3,2.631a21.08,21.08,0,0,1,1.144,4.421c.313,1.694.624,3.692.925,5.771.395,2.7-.026,5.922.331,8.4C740.2,554.316,740.228,554.469,740.25,554.623Z" transform="translate(-583.746 -445.581)" fill="#3f3d56"/>
  <circle id="Ellipse_49" data-name="Ellipse 49" cx="10.133" cy="10.133" r="10.133" transform="translate(120.818 48.9)" fill="#ffb6b6"/>
  <path id="Path_1028" data-name="Path 1028" d="M575.659,447.31l1.694-6.536,1.5,5.64Z" transform="translate(-460.913 -352.915)" opacity="0.2"/>
  <path id="Path_1029" data-name="Path 1029" d="M732.041,608.087c-.606,8.348.022,12.024-3.323,18.906a57.048,57.048,0,0,1-9.472,3.632q-.508.143-1.018.279A57.54,57.54,0,0,1,705.1,632.8c-.231.006-.458.01-.678.014-.078,0-.154,0-.229,0-.249,0-.5,0-.745,0a57.656,57.656,0,0,1-13.861-1.68q-.682-.167-1.357-.353a56.915,56.915,0,0,1-6.971-2.4q-1.794-.748-3.524-1.613c-.261-.132-.522-.263-.779-.4a17.168,17.168,0,0,1-2.089-8.547C675.784,611.976,730.02,603.04,732.041,608.087Z" transform="translate(-572.224 -517.949)" fill="#2f2e41"/>
  <path id="Path_1030" data-name="Path 1030" d="M732.458,608.805c.031-.517.065-1.051.106-1.607-2.021-5.047-56.257,3.889-57.172,9.741,0,.537.026,1.057.064,1.566C677.672,612.729,729.2,604.236,732.458,608.805Z" transform="translate(-572.643 -517.239)" opacity="0.2"/>
  <path id="Path_1031" data-name="Path 1031" d="M636.751,534.147l4.452-2.226-3.71-10.016-.978-5.051a3.819,3.819,0,0,0-6.235-2.174h0a3.819,3.819,0,0,0-.5,5.286l3.629,4.537Z" transform="translate(-535.455 -443.616)" fill="#ffb6b6"/>
  <path id="Path_1032" data-name="Path 1032" d="M666.594,548.819l-5.936,2.968,4.5,14.114a6.175,6.175,0,0,0,4.452,4.129h0a6.175,6.175,0,0,0,6.725-2.83l11.945-20.474a6.3,6.3,0,0,0-2.032-8.568h0a6.3,6.3,0,0,0-9.029,2.544l-7.291,15.535Z" transform="translate(-560.846 -462.369)" fill="#3f3d56"/>
  <circle id="Ellipse_50" data-name="Ellipse 50" cx="11.15" cy="11.15" r="11.15" transform="translate(30.612 46.168)" fill="#ffb6b6"/>
  <path id="Path_1033" data-name="Path 1033" d="M308.093,384.013c.907-1.222,2.21-2.091,3.206-3.24a22.08,22.08,0,0,1,1.616-1.91,6.636,6.636,0,0,1,4.29-1.532,10.825,10.825,0,0,1,8.837,4.194l2.431-1.425.96,2.527a1.473,1.473,0,0,1,2.245,1.843,1.019,1.019,0,0,1,1.563-.329,1.883,1.883,0,0,1,.538,1.715,3.453,3.453,0,0,1-2.6,2.856c-1.057.236-2.288-.012-3.134.664-.678.542-.883,1.529-1.576,2.053-.853.646-2.059.347-3.119.49a3.748,3.748,0,0,0-3.1,4.006,4.646,4.646,0,0,0-.725-1.666,1.582,1.582,0,0,0-1.607-.624c-.966.29-1.124,1.606-.89,2.587A36.262,36.262,0,0,0,320,403.029c-3.055,1.205-6.7.066-9.053-2.221a15.6,15.6,0,0,1-4.12-8.766C306.369,389.293,306.434,386.25,308.093,384.013Z" transform="translate(-277.348 -334.379)" fill="#2f2e41"/>
  <path id="Path_1034" data-name="Path 1034" d="M782,409.718c2.121-4.863.92-9.339-1.666-11.713v0c-1.017-2.278-2.368-4.036-3.915-4.449a11.873,11.873,0,0,0-2.278-1.332,2.968,2.968,0,0,0-2.328.106l-.411-.11c-.349-.891-.757-.909-1.212-.323a11.263,11.263,0,0,0-4.73-1.18c-4.577,0-7.284,3.875-8,8.559l3.825,1.019,1.33-2.119-.614,2.31,2.111.56c3.213,4.184-.632,13.836-5.505,19.205q1.74-.481,3.466-.813l4.182-6.131-2.591,5.581a15.221,15.221,0,0,1,4.937.373,3.224,3.224,0,0,0,.638-2.906,11.115,11.115,0,0,1,1.092,3.295,116.461,116.461,0,0,0,12.269,1.83C784.953,420.711,784.959,412.042,782,409.718Z" transform="translate(-638.354 -345.099)" fill="#2f2e41"/>
  <path id="Path_1035" data-name="Path 1035" d="M849.777,385.143c1.554,3.479-1.581,4.975-4.453,4.933a4.816,4.816,0,0,1-4.933-4.453,4.7,4.7,0,0,1,4.453-4.933C847.436,380.557,848.718,382.774,849.777,385.143Z" transform="translate(-704.747 -337.067)" fill="#2f2e41"/>
  <path id="Path_1036" data-name="Path 1036" d="M515.622,624.3l-2.559-4.269,8.51-6.456,3.538-3.736a3.819,3.819,0,0,1,6.427,1.516h0a3.819,3.819,0,0,1-2.42,4.725l-5.5,1.877Z" transform="translate(-442.671 -519.587)" fill="#ffb6b6"/>
  <path id="Path_1037" data-name="Path 1037" d="M448.782,585.069,444.8,588.39l-1.074.9-.126.1q-.416.206-.837.407-1.262.6-2.555,1.142a56.891,56.891,0,0,1-6.971,2.4q-.676.185-1.357.353c-.277.068-.556.136-.835.2-.175.042-.353.082-.53.12-.215.048-.431.1-.646.14s-.451.094-.676.138a6.172,6.172,0,0,1-1.918-4.473c0-.054,0-.11,0-.165l.64-16.411.283-7.274a6.3,6.3,0,0,1,6.317-6.135c.191,0,.381.01.568.028.136.175.261.357.383.54.331.49.777,1.266,1.3,2.238.217.4.447.835.688,1.3.146.277,1.4,4.2,2.623,8.2l-.538,4.18-.973,7.535,3.991-2.619,2.81-1.846.333.556.867,1.447,1.674,2.791Z" transform="translate(-373.981 -480.5)" fill="#3f3d56"/>
  <path id="Path_1038" data-name="Path 1038" d="M294.574,617.831c0,.339-.01.672-.028,1a19.386,19.386,0,0,1-.315,2.7,15.777,15.777,0,0,1-1.457,4.307c-.092.181-.189.361-.289.536-.257.135-.518.267-.779.4-.044.022-.088.044-.132.064q-1.665.828-3.393,1.549a56.93,56.93,0,0,1-6.971,2.4q-.676.185-1.357.353-1.331.329-2.687.6a57.818,57.818,0,0,1-11.174,1.084c-.249,0-.5,0-.746,0-.076,0-.151,0-.229,0-.219,0-.447-.008-.678-.014a57.519,57.519,0,0,1-13.124-1.892q-.511-.134-1.019-.279A57.044,57.044,0,0,1,240.725,627c-3.345-6.883-2.717-10.558-3.323-18.906,1.244-3.108,22.287-.913,38.489,2.6a114.308,114.308,0,0,1,11.627,3.072c3.3,1.1,5.687,2.222,6.624,3.275A1.583,1.583,0,0,1,294.574,617.831Z" transform="translate(-221.958 -517.952)" fill="#2f2e41"/>
  <path id="Path_1039" data-name="Path 1039" d="M236.983,608.805c-.031-.517-.066-1.051-.106-1.607,2.021-5.047,56.257,3.889,57.172,9.741,0,.537-.025,1.057-.064,1.566C291.769,612.729,240.244,604.236,236.983,608.805Z" transform="translate(-221.537 -517.239)" opacity="0.2"/>
</svg>
