<svg id="undraw_building_websites_i78t" xmlns="http://www.w3.org/2000/svg" xmlns:xlink="http://www.w3.org/1999/xlink" width="174.614" height="131.81" viewBox="0 0 174.614 131.81">
  <defs>
    <linearGradient id="linear-gradient" x1="0.5" x2="0.5" y2="1" gradientUnits="objectBoundingBox">
      <stop offset="0" stop-color="#037bdb"/>
      <stop offset="1" stop-color="#1a99ff"/>
    </linearGradient>
  </defs>
  <path id="Path_1087" data-name="Path 1087" d="M627.72,112.875c1.5,3.187-1.676,4.09-5.312,5.8s-6.356,3.575-7.854.388-2.713-9.514,2.43-11.93C622.3,104.632,626.222,109.688,627.72,112.875Z" transform="translate(-527.095 -106.46)" fill="#2f2e41"/>
  <circle id="Ellipse_61" data-name="Ellipse 61" cx="4.894" cy="4.894" r="4.894" transform="translate(88.313 2.895)" fill="#ffb8b8"/>
  <path id="Path_1088" data-name="Path 1088" d="M700.514,228.673c-.169-.221-.339-.438-.51-.65q-.332-.412-.667-.8c-2.537-2.927-5.235-4.77-8.206-4.968h0l-.044,0-5.92,5.771-2.013,1.961.044.108,1.086,2.7h19.028A46.79,46.79,0,0,0,700.514,228.673Z" transform="translate(-583.06 -199.179)" fill="#2f2e41"/>
  <path id="Path_1089" data-name="Path 1089" d="M619.92,124.057h0l1.752-.823-.244-2.527L622.6,122.8l.837-.393-.142-1.474.683,1.22,6.222-2.924h0a5.181,5.181,0,0,0-6.892-2.486l-.9.424A5.181,5.181,0,0,0,619.92,124.057Z" transform="translate(-532.036 -114.297)" fill="#2f2e41"/>
  <path id="Path_1090" data-name="Path 1090" d="M401.532,331.62H299.34a3.291,3.291,0,0,1-3.288-3.288V266.927a2.411,2.411,0,0,1,2.409-2.409H402.369a2.453,2.453,0,0,1,2.45,2.451v61.363A3.292,3.292,0,0,1,401.532,331.62Z" transform="translate(-273.099 -233.023)" fill="#f2f2f2"/>
  <path id="Path_1091" data-name="Path 1091" d="M315.74,349.708h95.816a3.188,3.188,0,0,0,3.188-3.188V294.4a3.188,3.188,0,0,0-3.188-3.188H315.74a3.188,3.188,0,0,0-3.188,3.188v52.118A3.188,3.188,0,0,0,315.74,349.708Z" transform="translate(-286.311 -254.398)" fill="#fff"/>
  <path id="Path_1092" data-name="Path 1092" d="M404.588,255.685H295.82v-1.674a3.3,3.3,0,0,1,3.3-3.3H401.288a3.3,3.3,0,0,1,3.3,3.3Z" transform="translate(-272.913 -221.968)" fill="url(#linear-gradient)"/>
  <circle id="Ellipse_62" data-name="Ellipse 62" cx="0.854" cy="0.854" r="0.854" transform="translate(28.051 30.382)" fill="#fff"/>
  <circle id="Ellipse_63" data-name="Ellipse 63" cx="0.854" cy="0.854" r="0.854" transform="translate(31.29 30.382)" fill="#fff"/>
  <circle id="Ellipse_64" data-name="Ellipse 64" cx="0.854" cy="0.854" r="0.854" transform="translate(34.531 30.382)" fill="#fff"/>
  <path id="Path_1093" data-name="Path 1093" d="M541.936,478.395h-8.568a1.9,1.9,0,0,1-1.893-1.893v-8.569a1.9,1.9,0,0,1,1.893-1.893h8.568a1.9,1.9,0,0,1,1.893,1.893V476.5A1.9,1.9,0,0,1,541.936,478.395Zm-8.568-11.956a1.5,1.5,0,0,0-1.495,1.495V476.5A1.5,1.5,0,0,0,533.367,478h8.568a1.5,1.5,0,0,0,1.495-1.495v-8.569a1.5,1.5,0,0,0-1.495-1.495Z" transform="translate(-461.609 -394.387)" fill="#ccc"/>
  <path id="Path_1094" data-name="Path 1094" d="M552.253,485.612h-5.181a.6.6,0,0,1-.6-.6v-6.377a.6.6,0,0,1,.6-.6h3.754a.6.6,0,0,1,.375.132l1.427,1.147a.6.6,0,0,1,.223.466v5.23A.6.6,0,0,1,552.253,485.612Zm-5.181-7.174a.2.2,0,0,0-.2.2v6.377a.2.2,0,0,0,.2.2h5.181a.2.2,0,0,0,.2-.2v-5.23a.2.2,0,0,0-.074-.155l-1.427-1.147a.2.2,0,0,0-.125-.044Z" transform="translate(-473.62 -403.996)" fill="#ccc"/>
  <path id="Path_1095" data-name="Path 1095" d="M556.861,490.439h-3.188a.2.2,0,0,1,0-.4h3.188a.2.2,0,1,1,0,.4Z" transform="translate(-479.225 -413.605)" fill="#ccc"/>
  <path id="Path_1096" data-name="Path 1096" d="M556.861,496.439h-3.188a.2.2,0,0,1,0-.4h3.188a.2.2,0,1,1,0,.4Z" transform="translate(-479.225 -418.409)" fill="#ccc"/>
  <path id="Path_1097" data-name="Path 1097" d="M556.861,502.439h-3.188a.2.2,0,0,1,0-.4h3.188a.2.2,0,1,1,0,.4Z" transform="translate(-479.225 -423.214)" fill="#ccc"/>
  <path id="Path_1098" data-name="Path 1098" d="M643.936,478.395h-8.569a1.9,1.9,0,0,1-1.893-1.893v-8.569a1.9,1.9,0,0,1,1.893-1.893h8.569a1.9,1.9,0,0,1,1.893,1.893V476.5A1.9,1.9,0,0,1,643.936,478.395Zm-8.569-11.956a1.5,1.5,0,0,0-1.494,1.495V476.5A1.5,1.5,0,0,0,635.367,478h8.569a1.5,1.5,0,0,0,1.495-1.495v-8.569a1.5,1.5,0,0,0-1.495-1.495Z" transform="translate(-543.283 -394.387)" fill="#ccc"/>
  <path id="Path_1099" data-name="Path 1099" d="M653.651,490.424h-5.579a.6.6,0,0,1-.6-.6v-3.188a.6.6,0,0,1,.6-.6h5.579a.6.6,0,0,1,.6.6v3.188A.6.6,0,0,1,653.651,490.424Zm-5.579-3.985a.2.2,0,0,0-.2.2v3.188a.2.2,0,0,0,.2.2h5.579a.2.2,0,0,0,.2-.2v-3.188a.2.2,0,0,0-.2-.2Z" transform="translate(-554.494 -410.402)" fill="#ccc"/>
  <path id="Path_1100" data-name="Path 1100" d="M650.861,490.359a.6.6,0,0,1-.317-.09l-2.977-1.861a.2.2,0,0,1,.211-.338l2.977,1.861a.2.2,0,0,0,.211,0l2.977-1.861a.2.2,0,0,1,.211.338l-2.977,1.861a.6.6,0,0,1-.317.09Z" transform="translate(-554.493 -412.003)" fill="#ccc"/>
  <path id="Path_1101" data-name="Path 1101" d="M439.936,478.395h-8.568a1.9,1.9,0,0,1-1.893-1.893v-8.569a1.9,1.9,0,0,1,1.893-1.893h8.568a1.9,1.9,0,0,1,1.893,1.893V476.5A1.9,1.9,0,0,1,439.936,478.395Zm-8.568-11.956a1.5,1.5,0,0,0-1.495,1.495V476.5A1.5,1.5,0,0,0,431.367,478h8.568a1.5,1.5,0,0,0,1.495-1.495v-8.569a1.5,1.5,0,0,0-1.495-1.495Z" transform="translate(-379.934 -394.387)" fill="#ccc"/>
  <path id="Path_1102" data-name="Path 1102" d="M449.651,490.424h-5.579a.6.6,0,0,1-.6-.6v-3.188a.6.6,0,0,1,.6-.6h5.579a.6.6,0,0,1,.6.6v3.188A.6.6,0,0,1,449.651,490.424Zm-5.579-3.985a.2.2,0,0,0-.2.2v3.188a.2.2,0,0,0,.2.2h5.579a.2.2,0,0,0,.2-.2v-3.188a.2.2,0,0,0-.2-.2Z" transform="translate(-391.144 -410.402)" fill="#ccc"/>
  <path id="Path_1103" data-name="Path 1103" d="M452.32,496.429h-4.01a.4.4,0,0,1-.345-.6l1.208-2.092a.4.4,0,0,1,.69,0l.78,1.351.452-.783a.4.4,0,0,1,.69,0l.88,1.524a.4.4,0,0,1-.345.6Zm0-.4h0l-.88-1.524-.624,1.082a.2.2,0,0,1-.173.1h0a.2.2,0,0,1-.173-.1l-.953-1.65-1.208,2.092Z" transform="translate(-394.698 -416.407)" fill="#ccc"/>
  <circle id="Ellipse_65" data-name="Ellipse 65" cx="0.399" cy="0.399" r="0.399" transform="translate(57.511 76.435)" fill="#ccc"/>
  <path id="Path_1104" data-name="Path 1104" d="M754.338,610.284H751.9l-1.162-9.423h3.606Z" transform="translate(-601.136 -481.129)" fill="#ffb8b8"/>
  <path id="Path_1105" data-name="Path 1105" d="M921.163,753.772h-7.877v-.1a3.066,3.066,0,0,1,3.066-3.066h4.811Z" transform="translate(-767.338 -622.249)" fill="#2f2e41"/>
  <path id="Path_1106" data-name="Path 1106" d="M804.338,610.284H801.9l-1.162-9.423h3.605Z" transform="translate(-641.173 -481.129)" fill="#ffb8b8"/>
  <path id="Path_1107" data-name="Path 1107" d="M971.167,753.772h-7.877v-.1a3.066,3.066,0,0,1,3.066-3.066h4.811Z" transform="translate(-807.377 -622.249)" fill="#2f2e41"/>
  <path id="Path_1108" data-name="Path 1108" d="M942.154,588.571l-2.263-.688a.9.9,0,0,1-.631-.764l-2.109-19.992a.1.1,0,0,0-.1-.089.094.094,0,0,0-.1.082l-3.533,19.369a.9.9,0,0,1-1.063.717l-2.892-.6a.9.9,0,0,1-.714-.939l2.149-31.746,14.574-1.573-2.166,35.415a.9.9,0,0,1-1.156.8Z" transform="translate(-779.721 -463.501)" fill="#2f2e41"/>
  <circle id="Ellipse_66" data-name="Ellipse 66" cx="4.894" cy="4.894" r="4.894" transform="translate(157.525 52.99)" fill="#ffb8b8"/>
  <path id="Path_1109" data-name="Path 1109" d="M939.433,455.668l3.16-19.9a7.544,7.544,0,0,1,9.566-6.058h0a7.521,7.521,0,0,1,5.3,8.621L954.154,456.1Z" transform="translate(-788.275 -365.057)" fill="url(#linear-gradient)"/>
  <path id="Path_1110" data-name="Path 1110" d="M990.12,541.354a2,2,0,0,0,.348-3.053l3.267-6.327-3.679.393-2.539,5.948a2.015,2.015,0,0,0,2.6,3.039Z" transform="translate(-826.351 -447.183)" fill="#ffb8b8"/>
  <path id="Path_1111" data-name="Path 1111" d="M998.118,467.66a.9.9,0,0,1-.484-.229l-1.25-1.155a.9.9,0,0,1-.218-1.007l2.5-5.922-.354-11.7a2.889,2.889,0,0,1,5.724.781l.606,7.355a9.24,9.24,0,0,1-1.781,6.256l-3.9,5.267a.9.9,0,0,1-.637.359A.887.887,0,0,1,998.118,467.66Z" transform="translate(-833.647 -377.658)" fill="url(#linear-gradient)"/>
  <path id="Path_1112" data-name="Path 1112" d="M854.359,373.944a2,2,0,0,0,2.675,1.511l4.552,5.476,1.073-3.541-4.488-4.657a2.015,2.015,0,0,0-3.813,1.212Z" transform="translate(-720.124 -318.726)" fill="#ffb8b8"/>
  <path id="Path_1113" data-name="Path 1113" d="M871.888,390.393a.9.9,0,0,1,.4-.356l1.551-.7a.9.9,0,0,1,1.012.192l4.479,4.609,10.913,4.236a2.889,2.889,0,0,1-2.951,4.967l-7.01-2.31a9.241,9.241,0,0,1-5.067-4.079l-3.331-5.641a.9.9,0,0,1,0-.917Z" transform="translate(-734.086 -332.905)" fill="url(#linear-gradient)"/>
  <path id="Path_1114" data-name="Path 1114" d="M819.45,375.652l-.2,6.377-3.671,6.379,3.065-7.108Z" transform="translate(-653.061 -300.797)" opacity="0.1"/>
  <path id="Path_1115" data-name="Path 1115" d="M969.9,373.5a1.28,1.28,0,0,1-1.4-.937,1.946,1.946,0,0,0-1.385-1.449c-.9-.205-2,.217-2.653-.463a1.323,1.323,0,0,1-.314-1.164,2.673,2.673,0,0,1,1.109-1.56,6.788,6.788,0,0,1,3.759-1.4,13.485,13.485,0,0,1,2.116.105,9.368,9.368,0,0,1,2.165.4,5.1,5.1,0,0,1,3.189,3.722,5.884,5.884,0,0,1-1.207,4.808,6.317,6.317,0,0,1-2.423,1.845.946.946,0,0,1-.719.036c-.589-.234-.493-.964-.224-1.451.287-.521.73-1.026.5-1.66a1.256,1.256,0,0,0-.623-.671,3.213,3.213,0,0,0-1.871-.155Z" transform="translate(-808.038 -314.695)" fill="#2f2e41"/>
  <path id="Path_1116" data-name="Path 1116" d="M589.662,336.961H529.085a3.292,3.292,0,0,1-3.288-3.288V320.721a3.292,3.292,0,0,1,3.288-3.288h60.577a3.292,3.292,0,0,1,3.288,3.288v12.952A3.292,3.292,0,0,1,589.662,336.961Z" transform="translate(-457.063 -275.393)" fill="#fff"/>
  <path id="Path_1117" data-name="Path 1117" d="M589.262,336.661H528.685a3.391,3.391,0,0,1-3.388-3.388V320.321a3.391,3.391,0,0,1,3.388-3.388h60.577a3.391,3.391,0,0,1,3.388,3.388v12.952A3.391,3.391,0,0,1,589.262,336.661Zm-60.577-19.329a2.993,2.993,0,0,0-2.989,2.989v12.952a2.993,2.993,0,0,0,2.989,2.989h60.577a2.992,2.992,0,0,0,2.989-2.989V320.321a2.992,2.992,0,0,0-2.989-2.989Z" transform="translate(-456.663 -274.993)" fill="#3f3d56"/>
  <path id="Path_1118" data-name="Path 1118" d="M611.916,345.784H566.085A3.292,3.292,0,0,1,562.8,342.5v-6.775a3.292,3.292,0,0,1,3.288-3.288h45.831a3.292,3.292,0,0,1,3.288,3.288V342.5A3.292,3.292,0,0,1,611.916,345.784Z" transform="translate(-486.69 -287.404)" fill="#f2f2f2"/>
  <circle id="Ellipse_67" data-name="Ellipse 67" cx="3.932" cy="3.932" r="3.932" transform="translate(85.325 46.864)" fill="#ff6584"/>
  <path id="Path_1119" data-name="Path 1119" d="M633.439,355.336l-5.55-4.655-5.454-4.574a.8.8,0,0,0-1.027,0l-5.437,4.6-1.328,1.122-2-1.679-6.085-5.1a.8.8,0,0,0-1.027,0l-6.065,5.127L593.3,355.38a.2.2,0,0,0,.129.352l12.631-.024,4-.008-.039.033,11.918-.023,11.372-.022a.2.2,0,0,0,.128-.352Z" transform="translate(-511.061 -297.353)" fill="#3f3d56"/>
  <path id="Path_1120" data-name="Path 1120" d="M901.6,766.331H863.339a.2.2,0,1,1,0-.4H901.6a.2.2,0,1,1,0,.4Z" transform="translate(-727.184 -634.521)" fill="#ccc"/>
  <path id="Path_1121" data-name="Path 1121" d="M704.331,177.381a2.236,2.236,0,0,0-1.445-1.016,2.05,2.05,0,0,0-.331-.042l-15.182-13.574a1.8,1.8,0,0,0-1.122-.536A1.529,1.529,0,0,0,686,162.2a1.8,1.8,0,0,0-1.188,3.085l5.813,5.067,9.545,8.319a2.368,2.368,0,0,0,.07.464,2.245,2.245,0,0,0,1.927,1.668,2.21,2.21,0,0,0,1.206-.2,2.274,2.274,0,0,0,.773-.592c.022-.026.042-.05.062-.078A2.25,2.25,0,0,0,704.331,177.381Z" transform="translate(-583.962 -151.095)" fill="#ffb8b8"/>
  <path id="Path_1122" data-name="Path 1122" d="M638.105,215.573l-.141-5.751-.12-4.772-.082-3.34-.161-6.51a1.8,1.8,0,0,0-3.131-1.046,1.384,1.384,0,0,0-.149.191,1.781,1.781,0,0,0-.311,1.206l.355,9.5.177,4.772.227,6.088a2.4,2.4,0,0,0-.177.281,2.253,2.253,0,1,0,3.513-.618Z" transform="translate(-543.705 -176.206)" fill="#ffb8b8"/>
  <path id="Path_1123" data-name="Path 1123" d="M652.521,173.661l-1.409-3.816-2.28-6.181a3.189,3.189,0,0,0-1.983-1.929c-.036-.012-.074-.024-.109-.034a3.185,3.185,0,0,0-2.638.363l-7.678,4.87a3.207,3.207,0,0,0-1.05,4.334,55.048,55.048,0,0,0,3.134,4.82c.895,1.217,2.561,1.347,2.849,3.34h5.661l5.731-5.145Z" transform="translate(-544.451 -150.583)" fill="#ccc"/>
  <circle id="Ellipse_68" data-name="Ellipse 68" cx="4.617" cy="4.617" r="4.617" transform="translate(15.542 60.48)" fill="#ffb8b8"/>
  <path id="Path_1124" data-name="Path 1124" d="M292.962,415.394q.068.054.132.115a2.068,2.068,0,0,1-.083,3.085,1.94,1.94,0,0,1-.162.122l.313,10.55a1.606,1.606,0,0,1-1.105,1.568l-.019,0-8.566.912a1.773,1.773,0,1,1-.343-3.53l6.106-.538,1.056-9.137a1.982,1.982,0,0,1-.194-.2,2.068,2.068,0,0,1,2.865-2.956Z" transform="translate(-261.468 -353.475)" fill="#ffb8b8"/>
  <path id="Path_1125" data-name="Path 1125" d="M139.326,613.451h2.3l1.1-8.89h-3.4Z" transform="translate(-111.563 -484.092)" fill="#033865"/>
  <path id="Path_1126" data-name="Path 1126" d="M317.242,751.857h4.539a2.892,2.892,0,0,1,2.893,2.893v.094h-7.432Z" transform="translate(-290.066 -623.25)" fill="#2f2e41"/>
  <path id="Path_1127" data-name="Path 1127" d="M24.366,602.488l1.98,1.179,5.49-7.078-2.923-1.74Z" transform="translate(-19.51 -476.315)" fill="#ffb8b8"/>
  <path id="Path_1128" data-name="Path 1128" d="M198.488,734.889l3.9,2.322h0a2.893,2.893,0,0,1,1.005,3.965l-.048.081-6.385-3.8Z" transform="translate(-193.752 -609.663)" fill="#2f2e41"/>
  <path id="Path_1129" data-name="Path 1129" d="M236.229,569.541h-2.581a.844.844,0,0,1-.841-.757l-2.6-24.458a.282.282,0,0,0-.537-.086l-4.694,10.394-8.31,13.551a.85.85,0,0,1-1.062.332l-3.32-1.461a.846.846,0,0,1-.386-1.208l7.639-12.791,2.343-10.777c-.737-4.674,2.422-11.623,2.454-11.692l.016-.034,8.7-3.4.044.053c3.432,11.261,5.523,23.38,3.979,41.561A.852.852,0,0,1,236.229,569.541Z" transform="translate(-205.617 -443.322)" fill="#2f2e41"/>
  <path id="Path_1130" data-name="Path 1130" d="M257.723,481.246l-.041-.085c-.019-.041-1.954-4.122-3.446-8.483a6.433,6.433,0,0,1,.446-5.156,6.5,6.5,0,0,1,4.147-3.189h0a6.511,6.511,0,0,1,7.558,3.9c1.183,2.959.806,6.116.451,8.6l-.007.05-.045.022Z" transform="translate(-239.342 -392.876)" fill="#3f3d56"/>
  <path id="Path_1131" data-name="Path 1131" d="M280.662,404.406H273.33v-3.2c1.609-.639,3.184-1.183,4.136,0a3.2,3.2,0,0,1,3.2,3.2Z" transform="translate(-254.905 -341.917)" fill="#2f2e41"/>
  <path id="Path_1132" data-name="Path 1132" d="M248.75,401.185c-4.383,0-5.61,5.494-5.61,8.593,0,1.729.782,2.347,2.01,2.556l.434-2.314,1.016,2.413c.345,0,.708,0,1.083-.012l.345-.709.768.7c3.077,0,5.564.453,5.564-2.631C254.36,406.679,253.284,401.185,248.75,401.185Z" transform="translate(-230.73 -342.456)" fill="#2f2e41"/>
  <path id="Path_1133" data-name="Path 1133" d="M219.323,766.331H181.063a.2.2,0,1,1,0-.4h38.259a.2.2,0,1,1,0,.4Z" transform="translate(-180.864 -634.521)" fill="#ccc"/>
  <path id="Path_1134" data-name="Path 1134" d="M335.435,389.288h-8.568a1.9,1.9,0,0,1-1.893-1.893v-8.568a1.9,1.9,0,0,1,1.893-1.893h8.568a1.9,1.9,0,0,1,1.893,1.893v8.568A1.9,1.9,0,0,1,335.435,389.288Z" transform="translate(-296.258 -323.037)" fill="#fff"/>
  <path id="Path_1135" data-name="Path 1135" d="M335.435,389.288h-8.568a1.9,1.9,0,0,1-1.893-1.893v-8.568a1.9,1.9,0,0,1,1.893-1.893h8.568a1.9,1.9,0,0,1,1.893,1.893v8.568A1.9,1.9,0,0,1,335.435,389.288Zm-8.568-11.956a1.5,1.5,0,0,0-1.495,1.495v8.568a1.5,1.5,0,0,0,1.495,1.495h8.568a1.5,1.5,0,0,0,1.495-1.495v-8.568a1.5,1.5,0,0,0-1.495-1.495Z" transform="translate(-296.258 -323.037)" fill="#3f3d56"/>
  <path id="Path_1136" data-name="Path 1136" d="M345.151,399.813h-5.579a.6.6,0,0,1-.6-.6v-4.185a.6.6,0,0,1,.6-.6h1.571a.594.594,0,0,1,.509.284l.438.712h3.062a.6.6,0,0,1,.6.6v3.188A.6.6,0,0,1,345.151,399.813Z" transform="translate(-307.468 -337.049)" fill="url(#linear-gradient)"/>
  <path id="Path_1137" data-name="Path 1137" d="M303.4,427.727q.042.077.077.157A2.069,2.069,0,0,1,302.2,430.7a1.933,1.933,0,0,1-.2.05l-3.806,9.845a1.606,1.606,0,0,1-1.627,1.016l-.019,0L288.3,439.12a1.773,1.773,0,0,1,1.053-3.386l5.837,1.874,4.519-8.011a1.968,1.968,0,0,1-.1-.257,2.068,2.068,0,0,1,3.787-1.612Z" transform="translate(-265.897 -362.849)" fill="#ffb8b8"/>
</svg>
