<svg id="Component_8_1" data-name="Component 8 – 1" xmlns="http://www.w3.org/2000/svg" width="177.572" height="112.218" viewBox="0 0 177.572 112.218">
  <path id="Path_889" data-name="Path 889" d="M684.118,444.962l.173-3.889a12.559,12.559,0,0,1,5.858-1.483c-2.813,2.3-2.462,6.734-4.369,9.827a7.554,7.554,0,0,1-5.54,3.491l-2.354,1.442a12.658,12.658,0,0,1,2.668-10.258A12.232,12.232,0,0,1,682.8,442c.564,1.487,1.317,2.957,1.317,2.957Z" transform="translate(-527.753 -342.334)" fill="#f2f2f2"/>
  <path id="Path_890" data-name="Path 890" d="M146.852,406.116l-5.682-1.72a19.153,19.153,0,0,1,.015-9.216c2.34,5.024,9.025,6.175,12.878,10.159a11.521,11.521,0,0,1,3.073,9.5l1.244,4.022a19.305,19.305,0,0,1-14.154-7.806,18.648,18.648,0,0,1-2.239-4.107C144.4,406.675,146.852,406.116,146.852,406.116Z" transform="translate(-109.505 -307.75)" fill="#f2f2f2"/>
  <path id="Path_891" data-name="Path 891" d="M203.817,283.968a.451.451,0,0,1-.131.314.44.44,0,0,1-.312.128H201.6a.441.441,0,0,1-.442-.439v-53.8c0-1.186-.4-2.148-.887-2.15H89.536c-.491,0-.887.965-.889,2.15v53.463a.444.444,0,0,1-.4.44c-.358.035-.717.066-1.073.1l-.027,0c-.195.018-.389.031-.584.046h0c-.1-.184-.2-.372-.3-.56a.462.462,0,0,1-.049-.206V227.386c0-.327.013-.657.035-.982a12.577,12.577,0,0,1,.166-1.332c.374-2.055,1.219-3.447,2.179-3.451H201.206a1.036,1.036,0,0,1,.407.086,1.587,1.587,0,0,1,.5.352,3.114,3.114,0,0,1,.493.675,8.881,8.881,0,0,1,.931,3.524c0,.013,0,.027,0,.04.031.358.046.723.044,1.089l.031,4.741.02,2.827.06,8.872.022,3.15Z" transform="translate(-67.139 -172.588)" fill="#e6e6e6"/>
  <path id="Path_892" data-name="Path 892" d="M390.187,147.486H378.9a.6.6,0,0,0-.6.6v17.826H390.79V148.089a.6.6,0,0,0-.6-.6h0Zm-5.6,10.129a1.339,1.339,0,0,1-1.333-1.333v-2.056a1.333,1.333,0,1,1,2.665,0v2.056A1.339,1.339,0,0,1,384.582,157.615Z" transform="translate(-294.605 -114.856)" fill="#ccc"/>
  <path id="Path_893" data-name="Path 893" d="M378.126,228.207v1.72a.337.337,0,0,0,.336.336h11.894a.338.338,0,0,0,.336-.336v-1.72Z" transform="translate(-294.468 -177.718)" fill="#3f3d56"/>
  <path id="Path_894" data-name="Path 894" d="M341.189,21.742H292.952a1.566,1.566,0,0,0-1.563,1.563V55.856a1.565,1.565,0,0,0,1.563,1.563h48.237a1.565,1.565,0,0,0,1.563-1.563V23.305a1.566,1.566,0,0,0-1.563-1.563Z" transform="translate(-226.921 -16.932)" fill="#e6e6e6"/>
  <path id="Path_895" data-name="Path 895" d="M344.765,26.846H297.333a.838.838,0,0,0-.836.838V59.428a.838.838,0,0,0,.836.836h47.432a.838.838,0,0,0,.836-.836V27.684a.838.838,0,0,0-.836-.838Z" transform="translate(-230.899 -20.906)" fill="#fff"/>
  <path id="Path_896" data-name="Path 896" d="M371.748,229.232H343.529a.519.519,0,0,1-.508-.626l.438-2.08a.521.521,0,0,1,.508-.412H371.31a.521.521,0,0,1,.508.412l.438,2.08a.519.519,0,0,1-.508.626Z" transform="translate(-267.121 -176.088)" fill="#ccc"/>
  <rect id="Rectangle_43" data-name="Rectangle 43" width="0.869" height="0.521" rx="0.261" transform="translate(77.046 50.4)" fill="#e6e6e6"/>
  <rect id="Rectangle_44" data-name="Rectangle 44" width="0.869" height="0.521" rx="0.261" transform="translate(78.784 50.4)" fill="#e6e6e6"/>
  <rect id="Rectangle_45" data-name="Rectangle 45" width="0.869" height="0.521" rx="0.261" transform="translate(80.522 50.4)" fill="#e6e6e6"/>
  <rect id="Rectangle_46" data-name="Rectangle 46" width="0.869" height="0.521" rx="0.261" transform="translate(82.26 50.4)" fill="#e6e6e6"/>
  <rect id="Rectangle_47" data-name="Rectangle 47" width="0.869" height="0.521" rx="0.261" transform="translate(83.999 50.4)" fill="#e6e6e6"/>
  <rect id="Rectangle_48" data-name="Rectangle 48" width="0.869" height="0.521" rx="0.261" transform="translate(85.737 50.4)" fill="#e6e6e6"/>
  <rect id="Rectangle_49" data-name="Rectangle 49" width="0.869" height="0.521" rx="0.261" transform="translate(87.475 50.4)" fill="#e6e6e6"/>
  <rect id="Rectangle_50" data-name="Rectangle 50" width="0.869" height="0.521" rx="0.261" transform="translate(89.214 50.4)" fill="#e6e6e6"/>
  <rect id="Rectangle_51" data-name="Rectangle 51" width="0.869" height="0.521" rx="0.261" transform="translate(90.952 50.4)" fill="#e6e6e6"/>
  <rect id="Rectangle_52" data-name="Rectangle 52" width="0.869" height="0.521" rx="0.261" transform="translate(92.69 50.4)" fill="#e6e6e6"/>
  <rect id="Rectangle_53" data-name="Rectangle 53" width="0.869" height="0.521" rx="0.261" transform="translate(94.428 50.4)" fill="#e6e6e6"/>
  <rect id="Rectangle_54" data-name="Rectangle 54" width="0.869" height="0.521" rx="0.261" transform="translate(96.166 50.4)" fill="#e6e6e6"/>
  <rect id="Rectangle_55" data-name="Rectangle 55" width="0.869" height="0.521" rx="0.261" transform="translate(97.905 50.4)" fill="#e6e6e6"/>
  <rect id="Rectangle_56" data-name="Rectangle 56" width="0.869" height="0.521" rx="0.261" transform="translate(99.643 50.4)" fill="#e6e6e6"/>
  <rect id="Rectangle_57" data-name="Rectangle 57" width="0.869" height="0.521" rx="0.261" transform="translate(101.381 50.4)" fill="#e6e6e6"/>
  <rect id="Rectangle_58" data-name="Rectangle 58" width="0.869" height="0.521" rx="0.261" transform="translate(103.12 50.4)" fill="#e6e6e6"/>
  <rect id="Rectangle_59" data-name="Rectangle 59" width="0.869" height="0.521" rx="0.261" transform="translate(77.025 51.27)" fill="#e6e6e6"/>
  <rect id="Rectangle_60" data-name="Rectangle 60" width="0.869" height="0.521" rx="0.261" transform="translate(78.764 51.27)" fill="#e6e6e6"/>
  <rect id="Rectangle_61" data-name="Rectangle 61" width="0.869" height="0.521" rx="0.261" transform="translate(80.502 51.27)" fill="#e6e6e6"/>
  <rect id="Rectangle_62" data-name="Rectangle 62" width="0.869" height="0.521" rx="0.261" transform="translate(82.24 51.27)" fill="#e6e6e6"/>
  <rect id="Rectangle_63" data-name="Rectangle 63" width="0.869" height="0.521" rx="0.261" transform="translate(83.978 51.27)" fill="#e6e6e6"/>
  <rect id="Rectangle_64" data-name="Rectangle 64" width="0.869" height="0.521" rx="0.261" transform="translate(85.716 51.27)" fill="#e6e6e6"/>
  <rect id="Rectangle_65" data-name="Rectangle 65" width="0.869" height="0.521" rx="0.261" transform="translate(87.455 51.27)" fill="#e6e6e6"/>
  <rect id="Rectangle_66" data-name="Rectangle 66" width="0.869" height="0.521" rx="0.261" transform="translate(89.193 51.27)" fill="#e6e6e6"/>
  <rect id="Rectangle_67" data-name="Rectangle 67" width="0.869" height="0.521" rx="0.261" transform="translate(90.931 51.27)" fill="#e6e6e6"/>
  <rect id="Rectangle_68" data-name="Rectangle 68" width="0.869" height="0.521" rx="0.261" transform="translate(92.67 51.27)" fill="#e6e6e6"/>
  <rect id="Rectangle_69" data-name="Rectangle 69" width="0.869" height="0.521" rx="0.261" transform="translate(94.408 51.27)" fill="#e6e6e6"/>
  <rect id="Rectangle_70" data-name="Rectangle 70" width="0.869" height="0.521" rx="0.261" transform="translate(96.146 51.27)" fill="#e6e6e6"/>
  <rect id="Rectangle_71" data-name="Rectangle 71" width="0.869" height="0.521" rx="0.261" transform="translate(97.884 51.27)" fill="#e6e6e6"/>
  <rect id="Rectangle_72" data-name="Rectangle 72" width="0.869" height="0.521" rx="0.261" transform="translate(99.622 51.27)" fill="#e6e6e6"/>
  <rect id="Rectangle_73" data-name="Rectangle 73" width="0.869" height="0.521" rx="0.261" transform="translate(101.361 51.27)" fill="#e6e6e6"/>
  <rect id="Rectangle_74" data-name="Rectangle 74" width="0.869" height="0.521" rx="0.261" transform="translate(103.099 51.27)" fill="#e6e6e6"/>
  <rect id="Rectangle_75" data-name="Rectangle 75" width="6.953" height="0.521" rx="0.261" transform="translate(85.369 52.313)" fill="#e6e6e6"/>
  <path id="Path_897" data-name="Path 897" d="M347.059,45.372H302.677a.177.177,0,0,1,0-.353h44.382a.177.177,0,0,1,0,.353Z" transform="translate(-235.578 -35.059)" fill="#cacaca"/>
  <ellipse id="Ellipse_31" data-name="Ellipse 31" cx="1.034" cy="1.057" rx="1.034" ry="1.057" transform="translate(69.087 6.944)" fill="#ccc"/>
  <ellipse id="Ellipse_32" data-name="Ellipse 32" cx="1.034" cy="1.057" rx="1.034" ry="1.057" transform="translate(72.66 6.944)" fill="#ccc"/>
  <ellipse id="Ellipse_33" data-name="Ellipse 33" cx="1.034" cy="1.057" rx="1.034" ry="1.057" transform="translate(76.233 6.944)" fill="#ccc"/>
  <path id="Path_898" data-name="Path 898" d="M402.876,23.709l-.143-.419,18.332-9.525.143.419Z" transform="translate(-313.631 -10.719)" fill="#3f3d56"/>
  <path id="Path_899" data-name="Path 899" d="M652.876,103.621l-.143-.419,11.031-9.477.143.419Z" transform="translate(-508.321 -72.989)" fill="#3f3d56"/>
  <path id="Path_900" data-name="Path 900" d="M493.065,113.422,474.733,103.9l.143-.419L493.208,113Z" transform="translate(-369.702 -80.584)" fill="#3f3d56"/>
  <path id="Path_901" data-name="Path 901" d="M562.178,55.363,551.431,37.72l.34-.284,10.747,17.643Z" transform="translate(-429.431 -29.154)" fill="#3f3d56"/>
  <path id="Path_902" data-name="Path 902" d="M601.073,12.827l-10.466-.048v-.442l10.466.048Z" transform="translate(-459.94 -9.607)" fill="#3f3d56"/>
  <path id="Path_903" data-name="Path 903" d="M672.213,6.712H660.487a2.876,2.876,0,1,1,0-5.752h11.726a2.876,2.876,0,1,1,0,5.752Z" transform="translate(-512.119 -0.747)" fill="#1f8eff"/>
  <path id="Path_904" data-name="Path 904" d="M738.213,82.711H726.487a2.876,2.876,0,0,1,0-5.752h11.726a2.876,2.876,0,1,1,0,5.752Z" transform="translate(-563.517 -59.932)" fill="#1f8eff"/>
  <path id="Path_905" data-name="Path 905" d="M667.073,154.826l-10.466-.048v-.442l10.466.048Z" transform="translate(-511.337 -120.19)" fill="#3f3d56"/>
  <path id="Path_906" data-name="Path 906" d="M738.213,148.711H726.487a2.876,2.876,0,0,1,0-5.752h11.726a2.876,2.876,0,0,1,0,5.752Z" transform="translate(-563.517 -111.33)" fill="#1f8eff"/>
  <path id="Path_907" data-name="Path 907" d="M583.213,139.752H571.487a2.876,2.876,0,1,1,0-5.752h11.726a2.876,2.876,0,1,1,0,5.752Z" transform="translate(-442.81 -104.354)" fill="#1f8eff"/>
  <path id="Path_908" data-name="Path 908" d="M511.213,5.752H499.487a2.876,2.876,0,0,1,0-5.752h11.726a2.876,2.876,0,0,1,0,5.752Z" transform="translate(-386.739)" fill="#1f8eff"/>
  <path id="Path_909" data-name="Path 909" d="M256.328,249.18H243.053a1.77,1.77,0,1,0,0,3.54h4.867v13.717h3.54V252.72h4.867a1.77,1.77,0,0,0,0-3.54Z" transform="translate(-187.901 -194.051)" fill="#3f3d56"/>
  <path id="Path_910" data-name="Path 910" d="M119.779,153.589H84.273A14.338,14.338,0,0,1,70.132,141.28l-1.257-4.623A103.78,103.78,0,0,0,57.11,109.465c-2.378-3.862-3.6-7.6-.822-11.2l.07-.091c2.23-2.9,13.326-3.53,16.944-3.652q.214-.007.43-.007H95.816q.216,0,.43.007a10.807,10.807,0,0,1,9.344,5.956,11.135,11.135,0,0,1-.632,11.4c-7.758,11.653-10.133,18.96-7.7,23.692,2.352,4.577,9.562,6.917,22.69,7.364a5.183,5.183,0,0,1,5.158,5.369,5.055,5.055,0,0,1-4.99,5.276q-.168.007-.338.007Z" transform="translate(-42.591 -73.606)" fill="#3f3d56"/>
  <path id="Path_911" data-name="Path 911" d="M209.433,386.425h13.275a1.77,1.77,0,1,0,0-3.54H217.84V353.017H214.3v29.868h-4.867a1.77,1.77,0,0,0,0,3.54Z" transform="translate(-161.719 -274.915)" fill="#3f3d56"/>
  <path id="Path_912" data-name="Path 912" d="M269.969,418.049l2.287,1.242,6.054-8.37-3.375-1.833Z" transform="translate(-210.24 -318.58)" fill="#ffccb3"/>
  <path id="Path_913" data-name="Path 913" d="M264.928,436.111l4.151,1.3-.661,1.739,2.847,4.132a1.162,1.162,0,0,1-1.37,1.746l-4.833-1.836-.179-2.037-.979,1.6-1.822-.692Z" transform="translate(-204.098 -339.625)" fill="#2f2e41"/>
  <path id="Path_914" data-name="Path 914" d="M246.08,60.235a2.57,2.57,0,0,1-2.624,2.939l-8.817,18.76-2.765-3.856,9.076-17.739a2.584,2.584,0,0,1,5.13-.1h0Z" transform="translate(-180.574 -45.174)" fill="#ffccb3"/>
  <path id="Path_915" data-name="Path 915" d="M163.824,112.226a3.8,3.8,0,0,0,3.47,3.92c3.706.643,13.615-5.623,15.242-6.585s4.66-13.067,4.66-13.067l-2.637-4.461c-3.256,4.119-5.813,7.917-5.968,10.613l-14.767,9.579Z" transform="translate(-127.577 -71.672)" fill="#1f8eff"/>
  <path id="Path_916" data-name="Path 916" d="M183.175,225.99l.8,3.439s.008,3.172.57,3.756,12.822-.587,12.822-.587a43.855,43.855,0,0,1-1.283-8.978l-12.909,2.369Z" transform="translate(-142.649 -174.147)" fill="#1f8eff"/>
  <path id="Path_917" data-name="Path 917" d="M209.126,295.232,204.7,292.8c-.084-5.758,3.379-13.55,7.487-21.711-9.187,1.58-17.853,2.086-25.35.175a4.846,4.846,0,0,1-3.465-5.854q.044-.182.1-.36c.9-2.737-1.115-4.453.736-7.464,4.867-1.662,9.49-2.131,13.717-.664l2.649,5.857,13.129-1.7a4.841,4.841,0,0,1,5.382,4.232l0,.036q.026.214.035.429c-2.655,12.445-5.631,23.644-10,29.456Z" transform="translate(-142.691 -199.394)" fill="#2f2e41"/>
  <path id="Path_918" data-name="Path 918" d="M164.739,134.846l5.058-.3a1.027,1.027,0,0,1,1.01.633l1.429,3.465,5.94,4.91a12.317,12.317,0,0,1,2.357,6.858c.005,3.865.834,12.812.834,12.812s-3.433-4.832-5.551-3.547c-.36.219-.487.666-.865.892-.188.113-.623,0-.814.116-2.919,1.733-5.964,3.426-6.249,3.129-.559-.583-1.236-3.561-1.236-3.561l-4.63-17.011a6.3,6.3,0,0,1,.9-5.3,1.9,1.9,0,0,1,.977-.85c.707-.151.331-1.735.842-2.247Z" transform="translate(-125.995 -104.779)" fill="#1f8eff"/>
  <path id="Path_919" data-name="Path 919" d="M348.988,444.816l2.135-1.484-4.837-9.125-3.151,2.191Z" transform="translate(-267.22 -338.142)" fill="#ffccb3"/>
  <path id="Path_920" data-name="Path 920" d="M229.647,305.633l-3.346,2.991c-5.32-5.928-9.342-14.243-12.751-23.685A57.038,57.038,0,0,1,192,273.1c-1.995-1.688-3.49-3.856-1.789-5.912q.119-.144.249-.279c2.008-2.064,7.1-1.671,10.085-3.562l6.664,7.123-.419,1.91,12.517,4.24a4.835,4.835,0,0,1,2.964,6.162l-.013.037q-.07.2-.158.4l7.541,22.416Z" transform="translate(-147.555 -205.081)" fill="#2f2e41"/>
  <path id="Path_921" data-name="Path 921" d="M363.963,469.966l3.418-2.691,1.062,1.528,5.017-.015a1.162,1.162,0,0,1,.667,2.116l-4.245,2.951-1.782-1,.765,1.71-1.6,1.113-3.3-5.708Z" transform="translate(-283.439 -363.894)" fill="#2f2e41"/>
  <path id="Path_922" data-name="Path 922" d="M164.532,254.318a2.57,2.57,0,0,1-1.148-3.769l-11.45-17.279,4.732-.36,10.443,16.971a2.584,2.584,0,0,1-2.576,4.437Z" transform="translate(-118.319 -181.38)" fill="#ffccb3"/>
  <path id="Path_923" data-name="Path 923" d="M152.919,154.607a3.8,3.8,0,0,0-5.152.929c-2.475,2.833-2.268,14.555-2.291,16.445-.007.592.847,1.869,2.025,3.344.529.662,1.122,1.365,1.732,2.063.353.4.049,1.245.4,1.637s1.364.333,1.7.7c1.592,1.72,2.885,3.03,2.885,3.03l5.182.064c.058-3.852-2.579-7.29-5.968-10.613l-.514-17.594Z" transform="translate(-113.29 -119.913)" fill="#1f8eff"/>
  <path id="Path_924" data-name="Path 924" d="M144.572,66.515a3.809,3.809,0,0,1-1.605.807,1.306,1.306,0,0,1-1.465-.784c-.2-.711.44-1.359,1.017-1.822l1.831-1.466a4.427,4.427,0,0,1,1.123-.726,1.5,1.5,0,0,1,1.3.043,1.391,1.391,0,0,1,.611,1.211,2.585,2.585,0,0,1-.453,1.327,4.666,4.666,0,0,1-3.029,2.059" transform="translate(-110.166 -48.593)" fill="#2f2e41"/>
  <path id="Path_925" data-name="Path 925" d="M165.327,253.18H152.053a1.77,1.77,0,1,0,0,3.54h4.867v13.717h3.54V256.72h4.867a1.77,1.77,0,1,0,0-3.54Z" transform="translate(-117.034 -197.166)" fill="#3f3d56"/>
  <path id="Path_926" data-name="Path 926" d="M108.644,56.13a2.482,2.482,0,0,0-2.686-2.295,4.465,4.465,0,0,0-3.216,2.11,28.6,28.6,0,0,0-1.794,3.549,6.415,6.415,0,0,1-2.556,2.967,2.953,2.953,0,0,1-3.625-.544,2.922,2.922,0,0,0-.3,2.625,4,4,0,0,0,1.756,2.038,4.6,4.6,0,0,0,1.017.447,4.14,4.14,0,0,1,.612-1.1,3.418,3.418,0,0,0-.132,1.218,4.068,4.068,0,0,0,1.657-.026,3.528,3.528,0,0,0,2.447-2c.5-1.177.244-2.518.35-3.791s.872-2.726,2.15-2.747c.973-.016.844.064,1.46.817" transform="translate(-73.424 -41.921)" fill="#2f2e41"/>
  <path id="Path_927" data-name="Path 927" d="M157.058,75.494a5.752,5.752,0,0,1-5.752,5.752c-3.177,0-6.195-3.682-6.195-6.859s3.018-4.646,6.195-4.646A5.752,5.752,0,0,1,157.058,75.494Z" transform="translate(-113.006 -54.312)" fill="#2f2e41"/>
  <circle id="Ellipse_34" data-name="Ellipse 34" cx="5.488" cy="5.488" r="5.488" transform="translate(33.558 18.423) rotate(-11.564)" fill="#ffccb3"/>
  <path id="Path_928" data-name="Path 928" d="M161.492,80.052c-1.625.444-3.265.909-3.9,0a5,5,0,0,0-.688-1.695,6.862,6.862,0,0,1-.4,1.695,10.73,10.73,0,0,1-5.628,0,3.143,3.143,0,0,0-.387,1.341,1.891,1.891,0,0,0-.257-.135.424.424,0,0,0-.35-.031.3.3,0,0,0-.144.223.834.834,0,0,0,.013.277,2.1,2.1,0,0,0,.277.9.819.819,0,0,0,.555.356c.23,1.294,2.062,3.044,2.062,3.044-5.531.221-5.531-3.531-5.531-7.08l.664-1.327h2.212V74.742h6.195A5.311,5.311,0,0,1,161.492,80.052Z" transform="translate(-114.564 -58.206)" fill="#2f2e41"/>
  <path id="Path_929" data-name="Path 929" d="M97.335,505.057l-97.07.068a.263.263,0,1,1,0-.527h0l97.07-.068a.263.263,0,0,1,0,.527Z" transform="translate(0 -392.906)" fill="#cacaca"/>
  <path id="Path_930" data-name="Path 930" d="M555.432,505.057l-50.167.068a.263.263,0,1,1,0-.527h0l50.167-.068a.263.263,0,1,1,0,.527Z" transform="translate(-393.273 -392.906)" fill="#cacaca"/>
  <path id="Path_931" data-name="Path 931" d="M372.506,82.584H353.489a3,3,0,0,1-2.992-2.992v-12.6A3,3,0,0,1,353.489,64h19.016a3,3,0,0,1,2.992,2.992v12.6a3,3,0,0,1-2.992,2.992ZM353.489,64.443a2.552,2.552,0,0,0-2.549,2.549v12.6a2.552,2.552,0,0,0,2.549,2.549h19.016a2.552,2.552,0,0,0,2.549-2.549v-12.6a2.552,2.552,0,0,0-2.549-2.549H353.489Z" transform="translate(-272.952 -49.841)" fill="#e6e6e6"/>
  <rect id="Rectangle_76" data-name="Rectangle 76" width="5.087" height="0.442" transform="translate(81.085 18.142)" fill="#e6e6e6"/>
  <rect id="Rectangle_77" data-name="Rectangle 77" width="11.283" height="0.442" transform="translate(81.085 19.912)" fill="#e6e6e6"/>
  <rect id="Rectangle_78" data-name="Rectangle 78" width="11.283" height="0.442" transform="translate(81.085 21.46)" fill="#e6e6e6"/>
  <rect id="Rectangle_79" data-name="Rectangle 79" width="14.381" height="0.442" transform="translate(81.085 23.009)" fill="#e6e6e6"/>
  <rect id="Rectangle_80" data-name="Rectangle 80" width="7.522" height="0.442" transform="translate(81.085 24.558)" fill="#e6e6e6"/>
  <rect id="Rectangle_81" data-name="Rectangle 81" width="13.717" height="0.442" transform="translate(81.085 26.107)" fill="#e6e6e6"/>
  <rect id="Rectangle_82" data-name="Rectangle 82" width="2.434" height="0.442" transform="translate(81.085 27.655)" fill="#e6e6e6"/>
  <path id="Path_932" data-name="Path 932" d="M363.8,34.979a.082.082,0,0,1-.059-.025l-.472-.483a.083.083,0,0,1,0-.116l.472-.483a.083.083,0,1,1,.118.116l-.415.425.415.425a.083.083,0,0,1-.059.141Z" transform="translate(-282.877 -26.36)" fill="#ccc"/>
  <path id="Path_933" data-name="Path 933" d="M369.043,34.979a.083.083,0,0,1-.059-.141l.415-.425-.415-.425a.083.083,0,1,1,.118-.116l.472.483a.083.083,0,0,1,0,.116l-.472.483a.082.082,0,0,1-.059.025Z" transform="translate(-287.33 -26.36)" fill="#ccc"/>
  <path id="Path_934" data-name="Path 934" d="M477.231,33.545h-.878a.181.181,0,0,0-.181.181V34.6a.181.181,0,0,0,.181.181h.878a.182.182,0,0,0,.182-.181v-.879A.182.182,0,0,0,477.231,33.545Z" transform="translate(-370.822 -26.123)" fill="#ccc"/>
  <path id="Path_935" data-name="Path 935" d="M467.508,33.545h-.878a.181.181,0,0,0-.181.181V34.6a.181.181,0,0,0,.181.181h.878a.182.182,0,0,0,.182-.181v-.879A.182.182,0,0,0,467.508,33.545Z" transform="translate(-363.25 -26.123)" fill="#ccc"/>
  <path id="Path_936" data-name="Path 936" d="M486.392,33.732h-.878a.181.181,0,0,0-.181.181v.879a.181.181,0,0,0,.181.181h.878a.182.182,0,0,0,.182-.181v-.879A.182.182,0,0,0,486.392,33.732Z" transform="translate(-377.956 -26.269)" fill="#ccc"/>
  <path id="Path_937" data-name="Path 937" d="M404.844,35.243h-7.016a.221.221,0,0,0,0,.442h7.016a.221.221,0,1,0,0-.442Z" transform="translate(-309.639 -27.445)" fill="#ccc"/>
</svg>
