<svg id="undraw_online_popularity_re_nm0s" xmlns="http://www.w3.org/2000/svg" xmlns:xlink="http://www.w3.org/1999/xlink" width="175.443" height="118.63" viewBox="0 0 175.443 118.63">
  <defs>
    <linearGradient id="linear-gradient" x1="0.5" x2="0.5" y2="1" gradientUnits="objectBoundingBox">
      <stop offset="0" stop-color="#037bdb"/>
      <stop offset="1" stop-color="#1a99ff"/>
    </linearGradient>
  </defs>
  <path id="Path_964" data-name="Path 964" d="M571.671,539.022c-.22.125-.436.253-.652.385a53.881,53.881,0,0,0-4.456,17.386q-.09,1.041-.132,2.081a52.318,52.318,0,0,0,1.633,15.439q.1.4.213.792c.052.189.105.379.163.567l.2.289s.009.011.013.016c.026.039.052.077.076.115.112.164.227.328.339.492l-.1,0-.252.006v0c.084,0,.17,0,.256,0,.031,0,.065,0,.1,0h.086c3.624.046,7.335.014,10.688-1.335,3.509-1.413,6.568-4.649,6.57-8.431a6.782,6.782,0,0,0-.165-1.472c-.045-.2-.1-.4-.16-.6a7.142,7.142,0,0,0-12.153-2.729c1.143-3.844,5.464-5.656,9.332-6.708s8.223-2.139,10.316-5.56a7.716,7.716,0,0,0,.657-6.294c-.019-.063-.039-.129-.061-.193a10.421,10.421,0,0,0-4.794-5.9c-4.283-2.338-9.622-1.786-14.175-.034A25.818,25.818,0,0,0,571.671,539.022Z" transform="translate(-485.465 -459.132)" fill="#f2f2f2"/>
  <path id="Path_965" data-name="Path 965" d="M590.654,678.2a16.079,16.079,0,0,0-9.406,3.659,16.455,16.455,0,0,0-4.968,7.148c-.057.159-.11.319-.16.479-.08-.169-.158-.341-.234-.511-.049-.109-.1-.22-.147-.33.052.189.105.38.163.567l.2.289s.009.011.013.016c.026.039.052.077.076.115.113.164.227.328.339.492l-.1,0-.252.006v0c.084,0,.17,0,.256,0,.031,0,.064,0,.1,0,.012-.048.027-.1.042-.144A15.536,15.536,0,0,1,593.708,678.9c-.045-.2-.1-.4-.16-.6A16.618,16.618,0,0,0,590.654,678.2Z" transform="translate(-492.93 -572.668)" fill="#fff"/>
  <path id="Path_966" data-name="Path 966" d="M572.549,578.948a17.694,17.694,0,0,0-3.766,3.5,14.685,14.685,0,0,0-1.477,2.294c-.2.375-.382.762-.548,1.154q-.09,1.041-.132,2.081a15.148,15.148,0,0,1,.528-1.53c.106-.275.223-.544.346-.809a16.568,16.568,0,0,1,6.519-6.979,38.387,38.387,0,0,1,9.606-4.109,43.541,43.541,0,0,1,10.5-1.664.312.312,0,0,0,.3-.311.269.269,0,0,0-.061-.193.223.223,0,0,0-.189-.068c-.439.015-.877.032-1.315.061a44.06,44.06,0,0,0-10.727,2.029A35.466,35.466,0,0,0,572.549,578.948Z" transform="translate(-485.661 -488.235)" fill="#fff"/>
  <circle id="Ellipse_38" data-name="Ellipse 38" cx="1.215" cy="1.215" r="1.215" transform="translate(104.381 72.275)" fill="#f2f2f2"/>
  <path id="Path_967" data-name="Path 967" d="M246.008,275.621H173.19a6.517,6.517,0,0,1-6.51-6.51V163.51a6.517,6.517,0,0,1,6.51-6.51h72.817a6.517,6.517,0,0,1,6.51,6.51v105.6A6.517,6.517,0,0,1,246.008,275.621Z" transform="translate(-166.68 -157)" fill="#3f3d56"/>
  <path id="Path_968" data-name="Path 968" d="M263.372,287.831H190.3a2.009,2.009,0,0,1-2.007-2.007v-106.3a2.009,2.009,0,0,1,2.007-2.007h73.074a2.009,2.009,0,0,1,2.007,2.007v106.3A2.009,2.009,0,0,1,263.372,287.831Z" transform="translate(-183.916 -173.363)" fill="#fff"/>
  <circle id="Ellipse_39" data-name="Ellipse 39" cx="0.554" cy="0.554" r="0.554" transform="translate(42.088 1.44)" fill="#fff"/>
  <path id="Path_969" data-name="Path 969" d="M277.923,325.544H211.982a.975.975,0,0,1-.974-.974v-58.9a.975.975,0,0,1,.974-.974h65.941a.975.975,0,0,1,.974.974v58.9a.975.975,0,0,1-.974.974Z" transform="translate(-202.034 -242.896)" fill="#f0f0f0"/>
  <path id="Path_970" data-name="Path 970" d="M294.374,331.608h-55a.975.975,0,0,1-.974-.974v-33.87a.975.975,0,0,1,.974-.974h55a.975.975,0,0,1,.974.974v33.87a.975.975,0,0,1-.974.974Z" transform="translate(-223.88 -267.693)" fill="#fff"/>
  <path id="Path_971" data-name="Path 971" d="M281.71,524H240.347a1.948,1.948,0,1,1,0-3.9H281.71a1.948,1.948,0,1,1,0,3.9Z" transform="translate(-223.88 -446.594)" fill="#fff"/>
  <path id="Path_972" data-name="Path 972" d="M268.372,491.054H240.347a1.948,1.948,0,1,1,0-3.9h28.025a1.948,1.948,0,1,1,0,3.9Z" transform="translate(-223.88 -420.32)" fill="#fff"/>
  <path id="Path_973" data-name="Path 973" d="M334.9,373.663l.2-.063a12.953,12.953,0,0,0,8.975-12.824,12.779,12.779,0,0,0-.788-3.967,12.934,12.934,0,1,0-16.283,16.724c.067.024.136.046.2.067h3.709Z" transform="translate(-287.542 -309.61)" fill="#2f2e41"/>
  <path id="Path_974" data-name="Path 974" d="M179.651,300.091l-.406,2.614-.01.067h-3.976l.313-2.014.213-1.367Z" transform="translate(-139.778 -238.782)" fill="#2f2e41"/>
  <path id="Path_975" data-name="Path 975" d="M218.261,308.349l.011-.063L218.5,307l-3.867-.7-.358,1.981Z" transform="translate(-170.9 -244.296)" fill="#2f2e41"/>
  <circle id="Ellipse_40" data-name="Ellipse 40" cx="4.42" cy="4.42" r="4.42" transform="translate(40.098 44.089)" fill="#fff"/>
  <circle id="Ellipse_41" data-name="Ellipse 41" cx="1.473" cy="1.473" r="1.473" transform="translate(44.861 45.451)" fill="#3f3d56"/>
  <path id="Path_976" data-name="Path 976" d="M331.693,307.029c-.195-4.788,3.932-8.843,9.216-9.058s9.726,3.493,9.921,8.28-3.479,5.876-8.764,6.09S331.887,311.816,331.693,307.029Z" transform="translate(-298.282 -269.426)" fill="url(#linear-gradient)"/>
  <ellipse id="Ellipse_42" data-name="Ellipse 42" cx="6.466" cy="2.03" rx="6.466" ry="2.03" transform="matrix(0.975, -0.223, 0.223, 0.975, 48.797, 48.782)" fill="#2f2e41"/>
  <ellipse id="Ellipse_43" data-name="Ellipse 43" cx="6.466" cy="2.03" rx="6.466" ry="2.03" transform="matrix(0.975, -0.223, 0.223, 0.975, 23.411, 53.003)" fill="#2f2e41"/>
  <path id="Path_977" data-name="Path 977" d="M364.377,431.367a2.947,2.947,0,0,0,5.8,1.055v-.005c.29-1.6-.948-2.168-2.55-2.458S364.667,429.766,364.377,431.367Z" transform="translate(-324.317 -374.599)" fill="#fff"/>
  <path id="Path_978" data-name="Path 978" d="M500.231,520.1a1.271,1.271,0,0,0-1.8,1.793l0,0,1.8,1.8,1.8-1.8a1.271,1.271,0,0,0-1.8-1.8Z" transform="translate(-430.974 -446.299)" fill="url(#linear-gradient)"/>
  <path id="Path_979" data-name="Path 979" d="M690.231,301.365a1.271,1.271,0,1,0-1.8,1.793l0,0,1.8,1.8,1.8-1.8a1.271,1.271,0,0,0-1.8-1.8Z" transform="translate(-582.511 -271.841)" fill="url(#linear-gradient)"/>
  <path id="Path_980" data-name="Path 980" d="M699.144,260.854a1.563,1.563,0,0,0-2.447-.007,2.254,2.254,0,0,0-.006,2.848l.006.007,2.447,2.848,2.447-2.848a2.254,2.254,0,0,0-.006-2.848,1.563,1.563,0,0,0-2.44,0Z" transform="translate(-588.994 -239.356)" fill="url(#linear-gradient)"/>
  <path id="Path_981" data-name="Path 981" d="M705.5,540.646h-2.267l-1.079-8.745H705.5Z" transform="translate(-560.011 -424.222)" fill="#9e616a"/>
  <path id="Path_982" data-name="Path 982" d="M859.419,731.381h-7.311v-.092a2.846,2.846,0,0,1,2.845-2.846h4.465Z" transform="translate(-713.349 -612.76)" fill="#2f2e41"/>
  <path id="Path_983" data-name="Path 983" d="M602.272,540.646H600l-1.079-8.745h3.346Z" transform="translate(-477.679 -424.222)" fill="#9e616a"/>
  <path id="Path_984" data-name="Path 984" d="M756.188,731.381h-7.311v-.092a2.846,2.846,0,0,1,2.845-2.846h4.465Z" transform="translate(-631.017 -612.76)" fill="#2f2e41"/>
  <path id="Path_985" data-name="Path 985" d="M623.148,228.045l-1.48,9.432,14.055.185-1.849-9.062Z" transform="translate(-495.817 -181.879)" fill="#e4e4e4"/>
  <path id="Path_986" data-name="Path 986" d="M770.541,420.26l-4.477,11.92-.555,49.4H769.3l9.062-39.688,8.322,38.652h3.7l-2.589-43.461s.763-8.723-3.144-13.87l-.951-2.748Z" transform="translate(-644.282 -366.966)" fill="#2f2e41"/>
  <path id="Path_987" data-name="Path 987" d="M854.655,370.7a2.775,2.775,0,0,1-1.778-3.865L846.9,347.337l4.4-.872,5.469,19.108a2.79,2.79,0,0,1-2.11,5.123Z" transform="translate(-709.194 -308.11)" fill="#ffb6b6"/>
  <path id="Path_988" data-name="Path 988" d="M798.385,328.89,788.7,328.7a1.267,1.267,0,0,1-1.2-.954A38.124,38.124,0,0,1,786.44,315a7.792,7.792,0,1,1,15.276,2.878,64.089,64.089,0,0,0-2.047,9.848,1.264,1.264,0,0,1-1.012,1.145h0a1.256,1.256,0,0,1-.244.024Z" transform="translate(-660.838 -277.516)" fill="#e4e4e4"/>
  <path id="Path_989" data-name="Path 989" d="M692.143,319.925a2.708,2.708,0,0,1,.143.4l12.127,4.121,2.343-2.047,3.552,3.133-3.8,4.027a2.066,2.066,0,0,1-2.443.423l-12.977-6.629a2.711,2.711,0,1,1,1.051-3.432Z" transform="translate(-581.636 -285.674)" fill="#ffb6b6"/>
  <path id="Path_990" data-name="Path 990" d="M773.287,322.557a1.161,1.161,0,0,1,.408-.877l4.441-3.783a3.228,3.228,0,1,1,4.874,4.232l-3.162,4.924a1.162,1.162,0,0,1-1.742.247l-4.421-3.861A1.161,1.161,0,0,1,773.287,322.557Z" transform="translate(-650.485 -284.438)" fill="#e4e4e4"/>
  <path id="Path_991" data-name="Path 991" d="M837.176,332.349a1.161,1.161,0,0,1-.591-.766l-1.313-5.684a3.228,3.228,0,1,1,6-2.378l2.915,5.074a1.162,1.162,0,0,1-.583,1.661l-5.463,2.146A1.161,1.161,0,0,1,837.176,332.349Z" transform="translate(-699.74 -288.183)" fill="#e4e4e4"/>
  <circle id="Ellipse_44" data-name="Ellipse 44" cx="5.943" cy="5.943" r="5.943" transform="translate(126.286 21.087) rotate(-28.663)" fill="#ffb6b6"/>
  <path id="Path_992" data-name="Path 992" d="M794.75,236.515h9.437V232.4c-2.071-.823-4.1-1.523-5.323,0a4.113,4.113,0,0,0-4.113,4.113Z" transform="translate(-667.603 -216.421)" fill="#2f2e41"/>
  <path id="Path_993" data-name="Path 993" d="M815.5,232.356c5.641,0,7.22,7.071,7.22,11.06,0,2.225-1.006,3.02-2.587,3.29l-.558-2.978-1.308,3.106c-.444,0-.911-.006-1.394-.015l-.443-.913-.989.9c-3.96.006-7.161.583-7.161-3.386C808.279,239.427,809.663,232.356,815.5,232.356Z" transform="translate(-678.393 -217.101)" fill="#2f2e41"/>
  <path id="Path_994" data-name="Path 994" d="M594.46,741.4H483.522a.2.2,0,1,1,0-.4H594.46a.2.2,0,0,1,0,.4Z" transform="translate(-419.219 -622.775)" fill="#3f3d56"/>
</svg>
