<svg id="undraw_visionary_technology_re_jfp7" xmlns="http://www.w3.org/2000/svg" xmlns:xlink="http://www.w3.org/1999/xlink" width="175.443" height="139.762" viewBox="0 0 175.443 139.762">
  <defs>
    <linearGradient id="linear-gradient" x1="0.5" x2="0.5" y2="1" gradientUnits="objectBoundingBox">
      <stop offset="0" stop-color="#037bdb"/>
      <stop offset="1" stop-color="#1a99ff"/>
    </linearGradient>
  </defs>
  <g id="Group_498" data-name="Group 498" transform="translate(115.163)">
    <g id="Group_496" data-name="Group 496" transform="translate(27.861 121.554)">
      <path id="Path_1040" data-name="Path 1040" d="M484.192,405.393h-3.647l-1.735-14.068h5.383Z" transform="translate(-473.105 -391.325)" fill="#ffb6b6"/>
      <path id="Path_1041" data-name="Path 1041" d="M471.66,435.412H460.444v-.142a4.366,4.366,0,0,1,4.365-4.365h0l2.049-1.554,3.822,1.554h.979v4.507Z" transform="translate(-460.444 -417.538)" fill="#2f2e41"/>
    </g>
    <g id="Group_497" data-name="Group 497" transform="translate(11.692 121.554)">
      <path id="Path_1042" data-name="Path 1042" d="M432.138,405.393h-3.647l-1.735-14.068h5.383Z" transform="translate(-421.051 -391.325)" fill="#ffb6b6"/>
      <path id="Path_1043" data-name="Path 1043" d="M419.6,435.412H408.389v-.142a4.366,4.366,0,0,1,4.365-4.365h0l2.049-1.554,3.822,1.554h.979v4.507Z" transform="translate(-408.389 -417.538)" fill="#2f2e41"/>
    </g>
    <path id="Path_1044" data-name="Path 1044" d="M424.97,183.865l21.042.443s3.783,6.2.895,14.951l.324,2.436-1.329,3.765-.665,11.518.665,1.772-.443,3.322s1.772,21.928-2.658,33l-5.316-.221-1.994-28.9,1.107-2.115-.221-.886-2.658-13.29-2.658,6.866v3.815l-2.436,2.83s.886,26.137-1.551,31.453h-5.952l-2.244-35.44,2.215-20.6-.443-1.329.664-.665-.443-2.215,4.1-10.521h0Z" transform="translate(-403.928 -126.752)" fill="#2f2e41"/>
    <path id="Path_1045" data-name="Path 1045" d="M440.33,50.287l6.423-1.55,1.772,4.208s9.168,4.873,9.611,11.518c0,0,1.242,5.316.135,7.752S452.512,82.4,452.512,82.4s4.208,13.511,3.1,14.176-27.466-.664-27.466-1.993S432.534,79.3,432.534,79.3l.929-23.922,5.98-2.215.886-2.879h0Z" transform="translate(-410.318 -33.598)" fill="#3f3d56"/>
    <path id="Path_1046" data-name="Path 1046" d="M512.405,165.91a2.71,2.71,0,0,1-.973-4.04l-3.574-24.506,4.948.158,2.589,23.877a2.725,2.725,0,0,1-2.99,4.51h0Z" transform="translate(-465.269 -94.696)" fill="#ffb6b6"/>
    <path id="Path_1047" data-name="Path 1047" d="M370.932,138.308a2.71,2.71,0,0,1,1.992-3.647L386.732,114.1l3.56,3.44-14.116,19.431a2.725,2.725,0,0,1-5.244,1.334Z" transform="translate(-370.749 -78.66)" fill="#ffb6b6"/>
    <path id="Path_1048" data-name="Path 1048" d="M492.577,95.982c-1.4-4.8.924-9.7,5.927-9.68,1.446.007,2.569.426,2.881,1.588a78.394,78.394,0,0,1,1.684,10.2l1.293,6.533-.783,1.356,1.632,4.378-.792,2.071-.171,10.577-3.987-.221-4.393-8.064-1.68-1s1.349-13.037-1.334-16.791l-.276-.95h0Z" transform="translate(-454.458 -59.494)" fill="#3f3d56"/>
    <path id="Path_1049" data-name="Path 1049" d="M401.532,70.38A7.537,7.537,0,0,1,413.414,68.4c1.035,1.009,1.552,2.092.969,3.143-2.04,3.681-6.769,7.644-6.769,7.644l-5.824,9.363-1.506.432-1.868,4.283-4,4.705-5.3,2.8-3.1-3.1.658-3.986,7.98-10.633s5.742-7.224,6.42-11.788l.461-.875h0Z" transform="translate(-381.272 -45.714)" fill="#3f3d56"/>
    <path id="Path_1050" data-name="Path 1050" d="M459.045,21.769c.147.018.293.031.438.038a6,6,0,0,0,1.331-.074,6.283,6.283,0,1,0-7.222-7.119c-.008.052-.016.1-.021.154a6.285,6.285,0,0,0,5.474,7h0Z" transform="translate(-427.813 -6.374)" fill="#ffb6b6"/>
    <path id="Path_1051" data-name="Path 1051" d="M448.326,8.009c.892.441,2.349-.945,2.907-.148.091-.172.191-.339.29-.5.09-.141.218-.442.366-.494a2.289,2.289,0,0,0,.048,1.59c.88.329,2.031-.4,2.845-1.259,1.278-1.349,3.366,2.111,2.872,3.9.628-.767,1.991-.334,2.453.543s-.318,1.576-.485,2.552l1.259-.16c.795-.774.739-2.078,1.393-2.975,1.093-1.5,1.516-3.032.695-4.581-.729-1.37-.8-3.142-2.134-3.932.584-.286-1.493.161-.938-.77s-2.413-1.041-2.607-.544c-.849-1.016-1.705-1.686-2.749-.872-1.026.8-.919,1.643-2.124,1.567-.565-.035-.5,1.019-.839,1.478a3.056,3.056,0,0,1-1.7.7c-.343-.268-1.51,2.016-1.51,2.016s-.946,1.436-.047,1.883h0Z" transform="translate(-423.962 0)" fill="#2f2e41"/>
  </g>
  <path id="Path_1052" data-name="Path 1052" d="M105.064,154.13a38.207,38.207,0,1,1,0,76.413c-21.1,0-50.3-20.921-38.207-38.207S83.963,154.13,105.064,154.13Z" transform="translate(-44.134 -106.254)" fill="#f2f2f2"/>
  <path id="Path_1053" data-name="Path 1053" d="M359.4,159.982a.622.622,0,0,0-.621.621v19.88a.621.621,0,0,0,1.243,0V160.6A.622.622,0,0,0,359.4,159.982Z" transform="translate(-247.336 -110.288)" fill="#3f3d56"/>
  <path id="Path_1054" data-name="Path 1054" d="M23.4,111.982a.622.622,0,0,0-.621.621v4.97a.621.621,0,1,0,1.242,0V112.6A.622.622,0,0,0,23.4,111.982Z" transform="translate(-15.705 -77.198)" fill="#3f3d56"/>
  <path id="Path_1055" data-name="Path 1055" d="M23.4,159.982a.622.622,0,0,0-.621.621v9.629a.621.621,0,1,0,1.242,0V160.6A.622.622,0,0,0,23.4,159.982Z" transform="translate(-15.705 -110.288)" fill="#3f3d56"/>
  <path id="Path_1056" data-name="Path 1056" d="M23.4,203.982a.622.622,0,0,0-.621.621v9.629a.621.621,0,1,0,1.242,0V204.6A.622.622,0,0,0,23.4,203.982Z" transform="translate(-15.705 -140.621)" fill="#3f3d56"/>
  <path id="Path_1057" data-name="Path 1057" d="M202.776,48.982a.622.622,0,0,0-.621.621v9.629a.621.621,0,1,0,1.242,0V49.6A.622.622,0,0,0,202.776,48.982Z" transform="translate(-139.361 -33.767)" fill="#3f3d56"/>
  <g id="Group_499" data-name="Group 499" transform="translate(0 108.464)">
    <path id="Path_1058" data-name="Path 1058" d="M509.473,375.1a.7.7,0,0,0,.511-1.222l-.048-.192.019-.046a1.893,1.893,0,0,1,3.492.013,16.81,16.81,0,0,1,1.477,4.208,5.6,5.6,0,0,1-.1,1.926,22.453,22.453,0,0,0,2.042-9.325,21.657,21.657,0,0,0-.134-2.418q-.111-.987-.309-1.96a22.712,22.712,0,0,0-4.5-9.626,6.044,6.044,0,0,1-2.514-2.608,4.609,4.609,0,0,1-.419-1.26,5.691,5.691,0,0,0,.369-1.962c.171-.259.476-.387.662-.64.926-1.256,2.2-1.037,2.869.67,1.423.718,1.437,1.91.564,3.056-.556.729-.632,1.715-1.12,2.5.05.064.1.126.152.191a22.858,22.858,0,0,1,2.386,3.78,9.5,9.5,0,0,1,.567-4.414,15.919,15.919,0,0,1,2.457-3.546,1.95,1.95,0,0,1,3.474.958l.005.05q-.2.113-.391.239a.956.956,0,0,0,.386,1.74l.019,0a9.506,9.506,0,0,1-.251,1.422c1.15,4.447-1.333,6.066-4.877,6.139-.078.04-.155.08-.233.118a23.341,23.341,0,0,1,1.256,5.91,22.129,22.129,0,0,1-.016,3.573l.006-.042a5.848,5.848,0,0,1,2-3.377c1.536-1.262,3.707-1.727,5.364-2.741a1.1,1.1,0,0,1,1.681,1.068l-.007.044a6.414,6.414,0,0,0-.72.347q-.2.113-.391.239a.956.956,0,0,0,.386,1.74l.02,0,.04.006a9.523,9.523,0,0,1-1.751,2.742c-.719,3.882-3.807,4.25-7.11,3.12h0a23.331,23.331,0,0,1-1.567,4.574h-5.6c-.02-.062-.038-.126-.056-.189a6.36,6.36,0,0,0,1.549-.092c-.415-.51-.831-1.023-1.246-1.533a.347.347,0,0,1-.026-.03c-.211-.261-.423-.52-.634-.78h0a9.318,9.318,0,0,1,.273-2.373Z" transform="translate(-350.884 -349.184)" fill="#f2f2f2"/>
    <path id="Path_1059" data-name="Path 1059" d="M0,447.931a.369.369,0,0,0,.37.37H175.03a.37.37,0,1,0,0-.739H.37A.369.369,0,0,0,0,447.931Z" transform="translate(0 -417.003)" fill="#ccc"/>
  </g>
  <path id="Path_1060" data-name="Path 1060" d="M94.657,227.677h-21.5v-.621h21.5a3.391,3.391,0,0,0,3.387-3.388V209.13h.621v14.538a4.013,4.013,0,0,1-4.009,4.009Z" transform="translate(-50.432 -144.169)" fill="url(#linear-gradient)"/>
  <rect id="Rectangle_158" data-name="Rectangle 158" width="48.903" height="0.621" transform="translate(36.349 115.022)" fill="url(#linear-gradient)"/>
  <g id="Group_501" data-name="Group 501" transform="translate(87.602 48.438)">
    <path id="Path_1061" data-name="Path 1061" d="M310.7,186.855H284.578a2.559,2.559,0,0,1-2.556-2.556V158.5a2.559,2.559,0,0,1,2.556-2.556H310.7a2.559,2.559,0,0,1,2.556,2.556v25.8A2.559,2.559,0,0,1,310.7,186.855Z" transform="translate(-282.021 -155.94)" fill="#e6e6e6"/>
    <path id="Path_1062" data-name="Path 1062" d="M291.133,158.392a6.659,6.659,0,0,0-6.659,6.659v20.39a2.342,2.342,0,0,0,2.342,2.342h15.972a11.4,11.4,0,0,0,11.4-11.4V160.734a2.342,2.342,0,0,0-2.342-2.342H291.133Z" transform="translate(-283.712 -157.63)" fill="#fff"/>
    <g id="Group_500" data-name="Group 500" transform="translate(2.376 7.288)">
      <path id="Path_1063" data-name="Path 1063" d="M322.566,180.375H308.52a.486.486,0,1,1,0-.972h14.047a.486.486,0,0,1,0,.972Z" transform="translate(-302.33 -179.403)" fill="#e6e6e6"/>
      <path id="Path_1064" data-name="Path 1064" d="M322.566,213.738H308.52a.486.486,0,1,1,0-.972h14.047a.486.486,0,0,1,0,.972Z" transform="translate(-302.33 -202.403)" fill="#e6e6e6"/>
      <path id="Path_1065" data-name="Path 1065" d="M315.611,197.067H290.156a.486.486,0,1,1,0-.972h25.455a.486.486,0,0,1,0,.972Z" transform="translate(-289.67 -190.91)" fill="#e6e6e6"/>
    </g>
    <path id="Path_1066" data-name="Path 1066" d="M352.532,227.3h-9.2a.486.486,0,1,1,0-.972h9.2a.486.486,0,0,1,0,.972Z" transform="translate(-323.956 -204.467)" fill="#e6e6e6"/>
  </g>
  <g id="Group_503" data-name="Group 503" transform="translate(38.642 106.214)">
    <path id="Path_1067" data-name="Path 1067" d="M147.173,366.488H126.431a2.032,2.032,0,0,1-2.03-2.03V343.97a2.032,2.032,0,0,1,2.03-2.03h20.742a2.032,2.032,0,0,1,2.03,2.03v20.489a2.032,2.032,0,0,1-2.03,2.03h0Z" transform="translate(-124.401 -341.94)" fill="#e6e6e6"/>
    <path id="Path_1068" data-name="Path 1068" d="M131.636,343.887a5.288,5.288,0,0,0-5.288,5.288v16.191a1.86,1.86,0,0,0,1.86,1.86h12.683a9.049,9.049,0,0,0,9.049-9.049v-12.43a1.86,1.86,0,0,0-1.86-1.86H131.636Z" transform="translate(-125.744 -343.282)" fill="#fff"/>
    <g id="Group_502" data-name="Group 502" transform="translate(1.887 5.787)">
      <path id="Path_1069" data-name="Path 1069" d="M156.6,361.342H145.443a.386.386,0,1,1,0-.772H156.6a.386.386,0,0,1,0,.772Z" transform="translate(-140.528 -360.57)" fill="#e6e6e6"/>
      <path id="Path_1070" data-name="Path 1070" d="M156.6,387.835H145.443a.386.386,0,1,1,0-.772H156.6a.386.386,0,0,1,0,.772Z" transform="translate(-140.528 -378.834)" fill="#e6e6e6"/>
      <path id="Path_1071" data-name="Path 1071" d="M151.075,374.6H130.862a.386.386,0,1,1,0-.772h20.213a.386.386,0,0,1,0,.772Z" transform="translate(-130.476 -369.709)" fill="#e6e6e6"/>
    </g>
    <path id="Path_1072" data-name="Path 1072" d="M180.392,398.607h-7.3a.386.386,0,1,1,0-.772h7.3a.386.386,0,0,1,0,.772Z" transform="translate(-157.7 -380.473)" fill="#e6e6e6"/>
  </g>
  <g id="Group_505" data-name="Group 505" transform="translate(30.076 46.649)">
    <path id="Path_1073" data-name="Path 1073" d="M113.665,168.334H98.325a1.5,1.5,0,0,1-1.5-1.5V151.681a1.5,1.5,0,0,1,1.5-1.5h15.339a1.5,1.5,0,0,1,1.5,1.5v15.152a1.5,1.5,0,0,1-1.5,1.5Z" transform="translate(-96.824 -150.18)" fill="#e6e6e6"/>
    <path id="Path_1074" data-name="Path 1074" d="M102.175,151.619a3.911,3.911,0,0,0-3.911,3.911V167.5a1.375,1.375,0,0,0,1.375,1.375h9.38a6.692,6.692,0,0,0,6.692-6.692v-9.192a1.375,1.375,0,0,0-1.375-1.375H102.175Z" transform="translate(-97.817 -151.172)" fill="#fff"/>
    <g id="Group_504" data-name="Group 504" transform="translate(1.395 4.28)">
      <path id="Path_1075" data-name="Path 1075" d="M120.635,164.528h-8.249a.285.285,0,1,1,0-.571h8.249a.285.285,0,0,1,0,.571Z" transform="translate(-108.751 -163.957)" fill="#e6e6e6"/>
      <path id="Path_1076" data-name="Path 1076" d="M120.635,184.121h-8.249a.285.285,0,1,1,0-.571h8.249a.285.285,0,0,1,0,.571Z" transform="translate(-108.751 -177.464)" fill="#e6e6e6"/>
      <path id="Path_1077" data-name="Path 1077" d="M116.55,174.331H101.6a.285.285,0,1,1,0-.571H116.55a.285.285,0,0,1,0,.571Z" transform="translate(-101.316 -170.715)" fill="#e6e6e6"/>
    </g>
    <path id="Path_1078" data-name="Path 1078" d="M138.232,192.087h-5.4a.285.285,0,1,1,0-.571h5.4a.285.285,0,0,1,0,.571Z" transform="translate(-121.45 -178.676)" fill="#e6e6e6"/>
  </g>
  <circle id="Ellipse_51" data-name="Ellipse 51" cx="3.106" cy="3.106" r="3.106" transform="translate(88.576 77.696)" fill="url(#linear-gradient)"/>
  <circle id="Ellipse_52" data-name="Ellipse 52" cx="3.106" cy="3.106" r="3.106" transform="translate(44.778 61.854)" fill="url(#linear-gradient)"/>
  <circle id="Ellipse_53" data-name="Ellipse 53" cx="3.106" cy="3.106" r="3.106" transform="translate(59.688 104.41)" fill="url(#linear-gradient)"/>
  <g id="Group_506" data-name="Group 506" transform="translate(65.632 16.814)">
    <ellipse id="Ellipse_54" data-name="Ellipse 54" cx="3.871" cy="3.79" rx="3.871" ry="3.79" transform="translate(0 0.1)" fill="#f2f2f2"/>
    <path id="Path_1079" data-name="Path 1079" d="M274.545,56.723H253.707a1.3,1.3,0,1,1,0-2.593h20.838a1.3,1.3,0,0,1,0,2.593Z" transform="translate(-239.638 -54.13)" fill="#f2f2f2"/>
    <path id="Path_1080" data-name="Path 1080" d="M290.808,70.85h-37.1a1.3,1.3,0,0,1,0-2.593h37.1a1.3,1.3,0,0,1,0,2.593Z" transform="translate(-239.639 -63.869)" fill="#f2f2f2"/>
  </g>
  <g id="Group_507" data-name="Group 507" transform="translate(10.963 35.451)">
    <ellipse id="Ellipse_55" data-name="Ellipse 55" cx="2.505" cy="2.453" rx="2.505" ry="2.453" transform="translate(0 0.064)" fill="#f2f2f2"/>
    <path id="Path_1081" data-name="Path 1081" d="M76.229,115.809H62.742a.839.839,0,1,1,0-1.678H76.228a.839.839,0,1,1,0,1.678Z" transform="translate(-53.638 -114.13)" fill="#f2f2f2"/>
    <path id="Path_1082" data-name="Path 1082" d="M86.754,124.952H62.743a.839.839,0,1,1,0-1.678H86.753a.839.839,0,0,1,0,1.678Z" transform="translate(-53.638 -120.433)" fill="#f2f2f2"/>
  </g>
  <g id="Group_508" data-name="Group 508" transform="translate(86.133 122.736)">
    <ellipse id="Ellipse_56" data-name="Ellipse 56" cx="2.505" cy="2.453" rx="2.505" ry="2.453" transform="translate(0 0.064)" fill="#f2f2f2"/>
    <path id="Path_1083" data-name="Path 1083" d="M318.228,396.809H304.742a.839.839,0,1,1,0-1.678h13.486a.839.839,0,1,1,0,1.678Z" transform="translate(-295.637 -395.13)" fill="#f2f2f2"/>
    <path id="Path_1084" data-name="Path 1084" d="M328.754,405.952H304.743a.839.839,0,0,1,0-1.678h24.011a.839.839,0,1,1,0,1.678Z" transform="translate(-295.638 -401.433)" fill="#f2f2f2"/>
  </g>
  <rect id="Rectangle_159" data-name="Rectangle 159" width="0.621" height="29.509" transform="translate(57.902 48.448)" fill="#e6e6e6"/>
  <circle id="Ellipse_57" data-name="Ellipse 57" cx="1.864" cy="1.864" r="1.864" transform="translate(56.348 76.093)" fill="#e6e6e6"/>
  <circle id="Ellipse_58" data-name="Ellipse 58" cx="1.864" cy="1.864" r="1.864" transform="translate(84.615 97.526)" fill="#e6e6e6"/>
  <circle id="Ellipse_59" data-name="Ellipse 59" cx="1.864" cy="1.864" r="1.864" transform="translate(34.294 72.055)" fill="#e6e6e6"/>
  <rect id="Rectangle_160" data-name="Rectangle 160" width="10.197" height="0.622" transform="matrix(1, -0.03, 0.03, 1, 25.277, 74.23)" fill="#e6e6e6"/>
  <path id="Path_1085" data-name="Path 1085" d="M292.915,327.105H277.46V319.97h.621v6.514h14.834Z" transform="translate(-191.275 -220.58)" fill="#e6e6e6"/>
  <circle id="Ellipse_60" data-name="Ellipse 60" cx="1.864" cy="1.864" r="1.864" transform="translate(33.529 92.406)" fill="#e6e6e6"/>
  <path id="Path_1086" data-name="Path 1086" d="M127.86,310.621H112.4v-7.135h.621V310H127.86Z" transform="translate(-77.49 -209.216)" fill="#e6e6e6"/>
  <rect id="Rectangle_161" data-name="Rectangle 161" width="74.233" height="0.621" transform="translate(23.428 87.178)" fill="#e6e6e6"/>
</svg>
